<svg width="26" height="25" viewBox="0 0 26 25" fill="none" xmlns="http://www.w3.org/2000/svg">
<g clip-path="url(#clip0_670_129)">
<g clip-path="url(#clip1_670_129)">
<path d="M2.17128 5.41955C2.25945 5.41936 2.34761 5.4191 2.43577 5.41879C2.67754 5.41811 2.91929 5.41831 3.16105 5.41866C3.42199 5.41888 3.68292 5.41829 3.94385 5.41781C4.45485 5.417 4.96584 5.41697 5.47683 5.41721C5.89218 5.4174 6.30753 5.41733 6.72288 5.41708C6.782 5.41705 6.84112 5.41701 6.90202 5.41698C7.02212 5.4169 7.14222 5.41683 7.26232 5.41676C8.06866 5.4163 8.875 5.4161 9.68134 5.41646C9.71286 5.41647 9.74438 5.41649 9.77685 5.4165C10.0328 5.41662 10.2887 5.41674 10.5447 5.41686C11.5429 5.41734 12.5412 5.41695 13.5394 5.41586C14.6615 5.41463 15.7835 5.41403 16.9056 5.41436C17.4995 5.41453 18.0934 5.41442 18.6874 5.4136C19.1929 5.41291 19.6985 5.41288 20.2041 5.4137C20.462 5.4141 20.7199 5.4142 20.9779 5.41348C21.2141 5.41283 21.4503 5.41306 21.6865 5.41396C21.7719 5.41414 21.8572 5.414 21.9425 5.41351C22.5453 5.4103 23.0476 5.45411 23.5309 5.85685C23.8807 6.21548 24.0142 6.63022 24.0137 7.11941C24.0141 7.18075 24.0141 7.18075 24.0146 7.24333C24.0155 7.37804 24.0157 7.51273 24.0158 7.64744C24.0161 7.74155 24.0164 7.83567 24.0167 7.92978C24.0173 8.12695 24.0175 8.32412 24.0174 8.52129C24.0174 8.77305 24.0187 9.02479 24.0203 9.27654C24.0213 9.47094 24.0215 9.66534 24.0215 9.85974C24.0216 9.95251 24.022 10.0453 24.0227 10.138C24.0305 11.2323 24.0305 11.2323 23.625 11.6838C23.5941 11.7198 23.5632 11.7558 23.5313 11.793C23.0428 12.1873 22.4585 12.2917 21.8608 12.4214C21.7647 12.4428 21.6686 12.4643 21.5724 12.4858C21.315 12.5434 21.0573 12.6 20.7996 12.6565C20.5318 12.7153 20.2642 12.775 19.9965 12.8346C19.5601 12.9317 19.1236 13.0284 18.6869 13.1246C18.0865 13.257 17.4863 13.3904 16.8862 13.5242C16.7088 13.5638 16.5314 13.6033 16.354 13.6428C16.3117 13.6522 16.2694 13.6617 16.2258 13.6714C15.5674 13.818 14.9087 13.9638 14.25 14.1096C14.2494 14.1649 14.2487 14.2203 14.248 14.2773C14.2452 14.4833 14.2416 14.6892 14.2377 14.8952C14.2362 14.9843 14.2349 15.0733 14.2338 15.1623C14.2322 15.2905 14.2298 15.4187 14.2272 15.547C14.2269 15.5865 14.2266 15.6261 14.2262 15.6669C14.2205 15.8992 14.194 16.066 14.0625 16.2659C13.7165 16.4677 13.3148 16.4269 12.9258 16.4252C12.8516 16.4252 12.7774 16.4254 12.7031 16.4256C12.548 16.4258 12.393 16.4255 12.2379 16.4248C12.0399 16.424 11.842 16.4245 11.644 16.4253C11.4909 16.4258 11.3378 16.4257 11.1846 16.4253C11.1117 16.4252 11.0387 16.4253 10.9658 16.4256C10.216 16.4283 10.216 16.4283 9.93754 16.2659C9.78182 16.0292 9.775 15.8206 9.77293 15.547C9.77209 15.5058 9.77125 15.4645 9.77038 15.4221C9.76785 15.2912 9.76626 15.1604 9.76469 15.0295C9.76313 14.9405 9.76152 14.8514 9.75984 14.7624C9.75587 14.5448 9.75273 14.3272 9.75004 14.1096C9.69166 14.0966 9.63328 14.0836 9.57313 14.0702C9.34179 14.0186 9.11045 13.967 8.87911 13.9154C8.77176 13.8915 8.66441 13.8675 8.55706 13.8436C7.90818 13.6989 7.25934 13.5541 6.61056 13.409C6.36964 13.3551 6.12872 13.3012 5.8878 13.2474C5.79804 13.2273 5.79804 13.2273 5.70647 13.2068C4.98843 13.0463 4.27017 12.8868 3.55142 12.7294C3.32051 12.6788 3.08969 12.6277 2.85888 12.5767C2.65169 12.5309 2.44438 12.4857 2.23695 12.441C2.08127 12.4073 1.92581 12.3726 1.77031 12.3381C1.71707 12.3268 1.66384 12.3156 1.609 12.304C1.05179 12.1782 0.531028 11.9631 0.211162 11.4703C0.0316277 11.1601 -0.00708201 10.9217 -0.00825525 10.5636C-0.00856327 10.5227 -0.0088713 10.4818 -0.00918866 10.4397C-0.0101121 10.3045 -0.0106601 10.1693 -0.0111277 10.034C-0.0113188 9.98774 -0.0115097 9.94143 -0.0117065 9.89372C-0.0126838 9.64852 -0.0133545 9.40331 -0.0137942 9.15811C-0.014312 8.90561 -0.0159237 8.65313 -0.0177866 8.40064C-0.0190159 8.20584 -0.0194051 8.01104 -0.0195731 7.81624C-0.0198006 7.72321 -0.020343 7.63018 -0.0212153 7.53716C-0.0268823 6.89265 -0.00458847 6.34876 0.468792 5.8596C0.989688 5.42618 1.52653 5.41723 2.17128 5.41955ZM1.17901 6.78252C1.10043 6.94027 1.10469 7.09239 1.10536 7.26482C1.10496 7.30234 1.10456 7.33987 1.10415 7.37853C1.10306 7.50247 1.10301 7.6264 1.10307 7.75035C1.10274 7.83663 1.10238 7.92292 1.10199 8.00921C1.10136 8.19008 1.10128 8.37093 1.10156 8.5518C1.10183 8.78331 1.1004 9.01477 1.09851 9.24627C1.09729 9.4245 1.09716 9.60271 1.09733 9.78095C1.09725 9.86628 1.0968 9.95161 1.09596 10.0369C1.09492 10.1565 1.09538 10.2759 1.0962 10.3954C1.09558 10.4304 1.09496 10.4655 1.09432 10.5017C1.09752 10.7016 1.13016 10.8564 1.27197 11.0038C1.47283 11.1391 1.71753 11.1722 1.95092 11.2212C2.0428 11.2419 2.13467 11.2626 2.22655 11.2833C2.32414 11.3051 2.42183 11.3264 2.51957 11.3475C2.71594 11.39 2.91186 11.4344 3.10772 11.4791C3.48918 11.5661 3.87098 11.6514 4.25288 11.7365C4.40439 11.7702 4.55589 11.8041 4.70739 11.8379C5.06412 11.9175 5.42087 11.9971 5.77764 12.0765C6.14486 12.1583 6.51203 12.2402 6.87918 12.3223C7.19674 12.3933 7.51433 12.4641 7.83193 12.5349C8.02069 12.577 8.20945 12.6191 8.39818 12.6613C8.57445 12.7007 8.75076 12.74 8.92709 12.7791C8.99175 12.7935 9.0564 12.808 9.12103 12.8225C9.20904 12.8422 9.2971 12.8617 9.38515 12.8812C9.43442 12.8922 9.48368 12.9032 9.53444 12.9145C9.65864 12.9421 9.65864 12.9421 9.79692 12.9377C9.79867 12.8998 9.80042 12.862 9.80223 12.8229C9.80685 12.7478 9.80685 12.7478 9.81157 12.6711C9.81564 12.5969 9.81564 12.5969 9.81981 12.5212C9.84603 12.3616 9.88892 12.2704 9.98442 12.1409C10.1556 12.0267 10.2835 12.0332 10.4815 12.0335C10.5359 12.033 10.5359 12.033 10.5913 12.0325C10.7111 12.0316 10.831 12.0315 10.9508 12.0314C11.0342 12.0311 11.1175 12.0307 11.2008 12.0304C11.3755 12.0298 11.5502 12.0297 11.7249 12.0297C11.9487 12.0297 12.1725 12.0285 12.3963 12.0268C12.5684 12.0258 12.7405 12.0256 12.9126 12.0257C12.9951 12.0256 13.0776 12.0251 13.1601 12.0244C13.2755 12.0235 13.391 12.0238 13.5064 12.0243C13.5574 12.0235 13.5574 12.0235 13.6095 12.0227C13.7765 12.0248 13.8697 12.0437 14.0123 12.1335C14.2171 12.3467 14.1821 12.6574 14.2032 12.9377C14.5932 12.8767 14.9778 12.8011 15.3629 12.7145C15.4482 12.6955 15.4482 12.6955 15.5352 12.6761C15.6899 12.6416 15.8446 12.607 15.9992 12.5723C16.1633 12.5355 16.3274 12.4989 16.4916 12.4623C16.7683 12.4005 17.0449 12.3387 17.3215 12.2767C17.602 12.2139 17.8825 12.1512 18.163 12.0885C18.1973 12.0809 18.2315 12.0732 18.2668 12.0653C18.3358 12.05 18.4047 12.0346 18.4736 12.0192C19.0677 11.8865 19.6616 11.7535 20.2554 11.6201C20.5985 11.543 20.9416 11.4662 21.2849 11.3904C21.442 11.3556 21.599 11.3206 21.756 11.2854C21.8239 11.2703 21.8918 11.2553 21.9597 11.2405C22.0491 11.221 22.1384 11.2009 22.2278 11.1809C22.2754 11.1703 22.3231 11.1598 22.3723 11.1489C22.5511 11.0939 22.6822 11.0183 22.8182 10.8899C22.9008 10.7323 22.895 10.5805 22.894 10.4068C22.8943 10.3692 22.8946 10.3316 22.895 10.2928C22.8958 10.1687 22.8956 10.0445 22.8954 9.92033C22.8956 9.83393 22.8958 9.74753 22.8961 9.66113C22.8965 9.48007 22.8964 9.29901 22.896 9.11795C22.8954 8.88602 22.8964 8.65413 22.8977 8.42221C22.8986 8.24378 22.8986 8.06536 22.8983 7.88693C22.8983 7.80143 22.8986 7.71593 22.8992 7.63043C22.8999 7.51081 22.8994 7.39125 22.8986 7.27163C22.899 7.23639 22.8995 7.20114 22.8999 7.16483C22.8976 6.99979 22.8796 6.89848 22.7945 6.75572C22.585 6.56132 22.3742 6.54907 22.0986 6.5508C22.0631 6.55065 22.0276 6.5505 21.9911 6.55034C21.8718 6.54995 21.7525 6.55023 21.6332 6.55051C21.547 6.55036 21.4607 6.55018 21.3745 6.54996C21.1372 6.54948 20.8999 6.54958 20.6626 6.54978C20.4068 6.5499 20.151 6.54948 19.8952 6.54912C19.394 6.54853 18.8928 6.54844 18.3916 6.54855C17.9843 6.54864 17.577 6.54855 17.1697 6.54836C17.1118 6.54833 17.0539 6.5483 16.9942 6.54827C16.8766 6.54821 16.759 6.54816 16.6413 6.5481C15.6634 6.54765 14.6854 6.54763 13.7074 6.54788C13.6763 6.54789 13.6452 6.5479 13.6132 6.5479C13.5503 6.54792 13.4873 6.54794 13.4244 6.54795C12.4454 6.5482 11.4664 6.54783 10.4874 6.54697C9.38769 6.546 8.288 6.54549 7.18832 6.54568C6.60596 6.54577 6.0236 6.54565 5.44124 6.54499C4.9455 6.54443 4.44977 6.54437 3.95403 6.54494C3.70099 6.54521 3.44796 6.54526 3.19492 6.5447C2.9634 6.54419 2.7319 6.54433 2.50039 6.54499C2.41651 6.54512 2.33264 6.545 2.24876 6.54463C2.13495 6.54416 2.02118 6.54455 1.90737 6.54516C1.85827 6.54465 1.85827 6.54465 1.80817 6.54412C1.55541 6.54694 1.36655 6.61119 1.17901 6.78252ZM10.9219 13.1252C10.9219 13.8213 10.9219 14.5174 10.9219 15.2346C11.6335 15.2346 12.345 15.2346 13.0782 15.2346C13.0782 14.5385 13.0782 13.8424 13.0782 13.1252C12.3666 13.1252 11.655 13.1252 10.9219 13.1252Z" fill="#0C7AF7"/>
<path d="M1.31244 13.0782C1.45624 13.1589 1.56572 13.2567 1.64057 13.4064C1.64534 13.5018 1.64703 13.5974 1.64735 13.693C1.64768 13.7542 1.648 13.8154 1.64833 13.8784C1.64846 13.9466 1.64858 14.0148 1.6487 14.0831C1.649 14.1546 1.64932 14.2261 1.64965 14.2976C1.65034 14.4519 1.65089 14.6062 1.65134 14.7605C1.65206 15.0045 1.65318 15.2486 1.65438 15.4927C1.65772 16.1868 1.66052 16.8809 1.66292 17.575C1.66424 17.9582 1.6659 18.3413 1.66792 18.7245C1.66917 18.967 1.67001 19.2095 1.67054 19.4519C1.67097 19.6031 1.67179 19.7542 1.67271 19.9054C1.67306 19.9753 1.67325 20.0453 1.67327 20.1152C1.67332 20.2109 1.674 20.3067 1.6747 20.4024C1.6749 20.4559 1.6751 20.5094 1.6753 20.5645C1.69158 20.7715 1.708 20.9715 1.85757 21.1257C2.01124 21.2113 2.12883 21.2054 2.30443 21.2056C2.33845 21.2058 2.37247 21.206 2.40752 21.2063C2.52213 21.2069 2.63671 21.2065 2.75131 21.2061C2.83406 21.2063 2.91681 21.2066 2.99956 21.207C3.22743 21.2077 3.45529 21.2076 3.68316 21.2074C3.92872 21.2072 4.17429 21.2079 4.41985 21.2085C4.90111 21.2095 5.38237 21.2097 5.86363 21.2096C6.25467 21.2095 6.64571 21.2097 7.03676 21.2101C7.14926 21.2102 7.26177 21.2103 7.37427 21.2104C7.43027 21.2104 7.48626 21.2105 7.54395 21.2105C8.6036 21.2114 9.66324 21.2114 10.7229 21.211C11.693 21.2108 12.6631 21.2117 13.6332 21.2133C14.6286 21.2149 15.6239 21.2156 16.6193 21.2154C17.1784 21.2153 17.7375 21.2155 18.2966 21.2167C18.7726 21.2177 19.2486 21.2178 19.7245 21.217C19.9675 21.2165 20.2105 21.2165 20.4534 21.2174C20.6757 21.2183 20.8979 21.2181 21.1202 21.217C21.2008 21.2168 21.2813 21.217 21.3619 21.2177C21.4711 21.2185 21.5803 21.2178 21.6896 21.2168C21.7807 21.2169 21.7807 21.2169 21.8737 21.2169C22.072 21.18 22.141 21.1085 22.2656 20.9532C22.3245 20.7768 22.3183 20.6 22.3183 20.415C22.3184 20.3535 22.3185 20.2921 22.3186 20.2288C22.3185 20.161 22.3184 20.0932 22.3183 20.0254C22.3184 19.9538 22.3185 19.8822 22.3186 19.8106C22.3188 19.6565 22.3189 19.5025 22.3189 19.3484C22.319 19.1048 22.3196 18.8611 22.3203 18.6174C22.3204 18.5763 22.3205 18.5351 22.3207 18.4927C22.3209 18.4086 22.3212 18.3245 22.3214 18.2403C22.3231 17.6732 22.3243 17.1061 22.3242 16.5389C22.3241 16.1561 22.3249 15.7734 22.3266 15.3906C22.3274 15.1881 22.3279 14.9857 22.3273 14.7832C22.3268 14.5927 22.3273 14.4024 22.3287 14.2119C22.329 14.1421 22.3289 14.0723 22.3284 14.0025C22.3243 13.4094 22.3243 13.4094 22.4725 13.2249C22.6555 13.0741 22.7689 13.0619 23.0004 13.0652C23.1717 13.0857 23.2655 13.1498 23.3906 13.2657C23.4748 13.4671 23.4961 13.6393 23.4965 13.8564C23.4969 13.9179 23.4972 13.9794 23.4975 14.0428C23.4974 14.1104 23.4973 14.178 23.4972 14.2456C23.4974 14.3172 23.4976 14.3888 23.4979 14.4605C23.4985 14.6547 23.4986 14.8488 23.4985 15.043C23.4984 15.2055 23.4986 15.368 23.4989 15.5305C23.4994 15.9142 23.4994 16.2979 23.4991 16.6816C23.4988 17.0763 23.4994 17.4711 23.5004 17.8659C23.5012 18.2056 23.5015 18.5453 23.5014 18.885C23.5013 19.0875 23.5014 19.29 23.5021 19.4926C23.5026 19.6833 23.5025 19.8741 23.5019 20.0648C23.5018 20.1344 23.502 20.204 23.5023 20.2737C23.5058 20.9308 23.4398 21.4927 22.9687 21.9845C22.5347 22.3182 22.0828 22.4121 21.5427 22.4124C21.4923 22.4125 21.4923 22.4125 21.4408 22.4126C21.3284 22.4129 21.216 22.4127 21.1036 22.4126C21.0221 22.4127 20.9406 22.4128 20.8591 22.4129C20.6353 22.4132 20.4115 22.4132 20.1877 22.4132C19.9462 22.4132 19.7048 22.4134 19.4633 22.4136C18.9904 22.414 18.5174 22.4142 18.0444 22.4142C17.66 22.4142 17.2755 22.4143 16.891 22.4145C15.8009 22.4149 14.7108 22.4151 13.6208 22.415C13.562 22.415 13.5032 22.415 13.4427 22.415C13.3544 22.415 13.3544 22.415 13.2644 22.415C12.3108 22.415 11.3573 22.4155 10.4037 22.4161C9.4246 22.4168 8.44544 22.4171 7.46629 22.4171C6.9166 22.4171 6.36691 22.4172 5.81721 22.4177C5.34919 22.4181 4.88117 22.4182 4.41314 22.4179C4.17441 22.4178 3.93568 22.4178 3.69695 22.4182C3.47824 22.4185 3.25953 22.4185 3.04082 22.4181C2.96186 22.418 2.88291 22.4181 2.80395 22.4183C2.21118 22.4202 1.68095 22.4149 1.17182 22.0782C1.13024 22.0512 1.08867 22.0241 1.04584 21.9962C0.636697 21.5981 0.513539 21.1214 0.497709 20.5615C0.496356 20.4317 0.496786 20.302 0.49737 20.1721C0.497179 20.1001 0.496929 20.028 0.496624 19.956C0.495988 19.762 0.496229 19.568 0.496677 19.3741C0.497035 19.1703 0.496702 18.9666 0.496482 18.7629C0.496227 18.4211 0.496561 18.0794 0.497233 17.7377C0.498 17.3431 0.497749 16.9486 0.496976 16.554C0.496338 16.2143 0.496248 15.8746 0.496616 15.5349C0.496835 15.3324 0.496866 15.1299 0.4964 14.9274C0.495993 14.7372 0.496277 14.547 0.497088 14.3569C0.497274 14.2872 0.497222 14.2176 0.496911 14.148C0.494239 13.4889 0.494239 13.4889 0.656192 13.2189C0.843549 13.048 1.0702 13.0314 1.31244 13.0782Z" fill="#0C7AF7"/>
<path d="M9.77646 1.58692C9.85622 1.58668 9.85622 1.58668 9.9376 1.58644C10.1127 1.586 10.2877 1.5859 10.4628 1.58585C10.585 1.5857 10.7073 1.58555 10.8295 1.58538C11.0855 1.58508 11.3415 1.58501 11.5975 1.58504C11.8922 1.58507 12.187 1.58458 12.4818 1.58384C12.7666 1.58315 13.0515 1.58298 13.3364 1.58301C13.457 1.58295 13.5776 1.58275 13.6981 1.58238C13.8672 1.58192 14.0362 1.58206 14.2052 1.58234C14.2791 1.58195 14.2791 1.58195 14.3546 1.58154C14.9181 1.58392 15.447 1.65843 15.8847 2.03904C15.9176 2.07771 15.9505 2.11638 15.9843 2.15623C16.0162 2.19007 16.0481 2.2239 16.081 2.25877C16.4217 2.7533 16.4643 3.36597 16.3934 3.9492C16.3601 4.09506 16.3099 4.17456 16.207 4.28318C16.0012 4.40475 15.8615 4.41738 15.6269 4.37693C15.4473 4.30374 15.3824 4.24157 15.2812 4.0781C15.2124 3.8532 15.2182 3.61767 15.2101 3.38432C15.2029 3.12895 15.2029 3.12895 15.0937 2.90623C14.9471 2.81565 14.8351 2.80072 14.6642 2.80057C14.6153 2.80031 14.5665 2.80004 14.5161 2.79977C14.4627 2.79996 14.4093 2.80015 14.3543 2.80035C14.2979 2.80018 14.2415 2.80002 14.1833 2.79985C14.0288 2.79951 13.8742 2.79959 13.7196 2.79989C13.5578 2.80012 13.396 2.7999 13.2342 2.79976C12.9625 2.79958 12.6907 2.79981 12.419 2.80026C12.1049 2.80077 11.7908 2.8006 11.4767 2.80008C11.207 2.79966 10.9372 2.7996 10.6675 2.79984C10.5064 2.79999 10.3453 2.80001 10.1842 2.7997C10.0047 2.79938 9.82513 2.79982 9.64557 2.80035C9.5655 2.80006 9.5655 2.80006 9.48381 2.79977C9.41047 2.80017 9.41047 2.80017 9.33565 2.80057C9.2932 2.80061 9.25075 2.80064 9.20702 2.80068C9.08522 2.81336 9.00985 2.84213 8.90619 2.90623C8.76069 3.09728 8.79425 3.35788 8.79001 3.58766C8.78008 3.86076 8.73758 4.10221 8.53998 4.30662C8.34652 4.40611 8.19975 4.41374 7.98627 4.37693C7.80562 4.30333 7.74074 4.24377 7.64057 4.0781C7.49388 3.50981 7.58183 2.86342 7.85828 2.35105C7.94218 2.21759 8.03625 2.11756 8.15619 2.0156C8.19003 1.9837 8.22387 1.95179 8.25873 1.91892C8.72486 1.59781 9.23006 1.58668 9.77646 1.58692Z" fill="#0C7AF7"/>
</g>
<g clip-path="url(#clip2_670_129)">
<path d="M19.4905 11.9922C19.5163 11.9923 19.5421 11.9924 19.5688 11.9924C19.9397 11.9937 20.3036 12 20.6679 12.0763C20.6927 12.0814 20.7174 12.0864 20.7429 12.0916C21.7344 12.299 22.6602 12.6956 23.4609 13.3205C23.4837 13.3379 23.5064 13.3552 23.5298 13.3732C23.9249 13.6808 24.2965 14.0421 24.6035 14.4377C24.6229 14.4614 24.6422 14.4851 24.6622 14.5096C25.5416 15.6074 26.0111 17.0169 26.008 18.4171C26.0079 18.4917 26.0085 18.5663 26.0091 18.641C26.0103 18.9805 25.9797 19.308 25.9238 19.6428C25.9166 19.6861 25.9166 19.6861 25.9093 19.7302C25.7309 20.7233 25.2997 21.6674 24.6797 22.4611C24.6604 22.4858 24.6411 22.5105 24.6212 22.5359C24.3081 22.9264 23.9577 23.2959 23.5625 23.6037C23.5387 23.6231 23.5149 23.6425 23.4905 23.6625C22.6792 24.3122 21.6847 24.7314 20.6679 24.924C20.6474 24.9282 20.6268 24.9323 20.6057 24.9366C19.8429 25.0857 18.9633 25.0579 18.2051 24.8986C18.1664 24.8907 18.1664 24.8907 18.1269 24.8825C17.1838 24.6821 16.2986 24.2733 15.539 23.6799C15.5144 23.6606 15.4897 23.6413 15.4643 23.6214C15.0738 23.3083 14.7043 22.9579 14.3965 22.5627C14.3673 22.527 14.3673 22.527 14.3376 22.4907C13.688 21.6794 13.2688 20.6849 13.0761 19.6681C13.072 19.6476 13.0678 19.627 13.0635 19.6059C12.9247 18.8953 12.9277 18.0408 13.0761 17.3322C13.0812 17.3075 13.0862 17.2827 13.0914 17.2572C13.3475 16.0328 13.9071 14.9004 14.7828 14.0017C14.8279 13.9555 14.8725 13.9089 14.9172 13.8622C15.0975 13.6759 15.2857 13.5091 15.4937 13.3543C15.5398 13.3199 15.5853 13.285 15.6309 13.2501C15.8443 13.0879 16.0663 12.9472 16.3001 12.8162C16.3474 12.7896 16.3943 12.7625 16.4412 12.7352C17.3705 12.213 18.4332 11.9882 19.4905 11.9922ZM19.0937 15.301C19.0093 15.4231 18.9635 15.5349 18.9637 15.6831C18.9637 15.7033 18.9636 15.7235 18.9636 15.7444C18.9637 15.7663 18.9638 15.7883 18.9639 15.8109C18.9639 15.8342 18.9639 15.8575 18.9639 15.8815C18.9639 15.9584 18.9641 16.0353 18.9643 16.1123C18.9643 16.1656 18.9644 16.219 18.9644 16.2724C18.9645 16.4128 18.9647 16.5532 18.965 16.6936C18.9653 16.8369 18.9654 16.9802 18.9655 17.1235C18.9658 17.4047 18.9662 17.6858 18.9668 17.967C18.9373 17.9668 18.9079 17.9666 18.8775 17.9665C18.5996 17.9649 18.3217 17.9638 18.0437 17.963C17.9008 17.9626 17.758 17.9621 17.6151 17.9612C17.4771 17.9604 17.3392 17.9599 17.2012 17.9597C17.1487 17.9596 17.0961 17.9593 17.0435 17.9589C16.9698 17.9584 16.896 17.9583 16.8222 17.9583C16.7898 17.9579 16.7898 17.9579 16.7568 17.9575C16.5628 17.9585 16.3914 18.0033 16.25 18.1447C16.1514 18.2816 16.1161 18.407 16.123 18.5763C16.1536 18.7202 16.2199 18.8505 16.3432 18.9358C16.4574 19.0041 16.5512 19.0366 16.6829 19.0364C16.7031 19.0365 16.7233 19.0365 16.7442 19.0365C16.7661 19.0364 16.7881 19.0364 16.8107 19.0363C16.834 19.0363 16.8573 19.0363 16.8813 19.0363C16.9582 19.0363 17.0351 19.0361 17.1121 19.0359C17.1654 19.0358 17.2188 19.0358 17.2722 19.0357C17.4126 19.0357 17.553 19.0354 17.6934 19.0351C17.8367 19.0349 17.98 19.0347 18.1233 19.0346C18.4045 19.0343 18.6856 19.0339 18.9668 19.0334C18.9666 19.0628 18.9664 19.0923 18.9663 19.1226C18.9647 19.4006 18.9636 19.6785 18.9628 19.9564C18.9624 20.0993 18.9619 20.2422 18.961 20.3851C18.9602 20.523 18.9597 20.661 18.9595 20.7989C18.9594 20.8515 18.9591 20.9041 18.9587 20.9566C18.9582 21.0304 18.9581 21.1042 18.9581 21.1779C18.9578 21.1995 18.9576 21.2211 18.9573 21.2434C18.9583 21.4373 19.0031 21.6087 19.1445 21.7502C19.2814 21.8488 19.4068 21.884 19.5761 21.8771C19.72 21.8466 19.8503 21.7803 19.9356 21.6569C20.0039 21.5428 20.0364 21.4489 20.0362 21.3173C20.0363 21.2971 20.0363 21.2768 20.0363 21.256C20.0362 21.234 20.0362 21.2121 20.0361 21.1895C20.0361 21.1545 20.0361 21.1545 20.0361 21.1189C20.0361 21.042 20.0359 20.965 20.0357 20.8881C20.0356 20.8347 20.0356 20.7814 20.0355 20.728C20.0354 20.5876 20.0352 20.4471 20.0349 20.3067C20.0347 20.1634 20.0345 20.0201 20.0344 19.8768C20.0341 19.5957 20.0337 19.3145 20.0332 19.0334C20.0626 19.0335 20.0921 19.0337 20.1224 19.0339C20.4004 19.0354 20.6783 19.0366 20.9562 19.0373C21.0991 19.0377 21.242 19.0383 21.3849 19.0391C21.5228 19.04 21.6608 19.0404 21.7987 19.0406C21.8513 19.0407 21.9039 19.041 21.9564 19.0414C22.0302 19.042 22.104 19.0421 22.1777 19.042C22.1993 19.0423 22.2209 19.0426 22.2432 19.0429C22.4371 19.0419 22.6085 18.9971 22.75 18.8556C22.8486 18.7187 22.8838 18.5934 22.8769 18.424C22.8464 18.2802 22.7801 18.1498 22.6567 18.0646C22.5426 17.9963 22.4487 17.9637 22.3171 17.9639C22.2968 17.9639 22.2766 17.9638 22.2558 17.9638C22.2338 17.9639 22.2119 17.964 22.1893 17.9641C22.166 17.9641 22.1427 17.9641 22.1187 17.9641C22.0417 17.9641 21.9648 17.9643 21.8879 17.9645C21.8345 17.9645 21.7811 17.9646 21.7278 17.9646C21.5874 17.9647 21.4469 17.9649 21.3065 17.9652C21.1632 17.9655 21.0199 17.9656 20.8766 17.9657C20.5955 17.966 20.3143 17.9664 20.0332 17.967C20.0333 17.9375 20.0335 17.9081 20.0337 17.8777C20.0352 17.5998 20.0364 17.3219 20.0371 17.0439C20.0375 16.901 20.0381 16.7582 20.0389 16.6153C20.0398 16.4773 20.0402 16.3394 20.0404 16.2014C20.0405 16.1489 20.0408 16.0963 20.0412 16.0437C20.0418 15.97 20.0419 15.8962 20.0418 15.8224C20.0421 15.8008 20.0424 15.7792 20.0427 15.757C20.0417 15.563 19.9969 15.3916 19.8554 15.2502C19.6086 15.0725 19.3129 15.0818 19.0937 15.301Z" fill="#0C7AF7"/>
</g>
</g>
<defs>
<clipPath id="clip0_670_129">
<rect width="26" height="25" fill="white"/>
</clipPath>
<clipPath id="clip1_670_129">
<rect width="24" height="24" fill="white"/>
</clipPath>
<clipPath id="clip2_670_129">
<rect width="13" height="13" fill="white" transform="translate(13 12)"/>
</clipPath>
</defs>
</svg>
