<svg width="24" height="24" viewBox="0 0 24 24" fill="none" xmlns="http://www.w3.org/2000/svg">
<g clip-path="url(#clip0_668_69)">
<path d="M2.22405 3.96606C2.27556 3.9658 2.32706 3.96555 2.38012 3.96529C2.55136 3.96462 2.72258 3.96495 2.89382 3.96529C3.01713 3.96502 3.14045 3.96469 3.26376 3.96431C3.56316 3.96351 3.86255 3.96347 4.16194 3.96371C4.40546 3.9639 4.64898 3.96384 4.8925 3.96359C4.94462 3.96353 4.94462 3.96353 4.9978 3.96348C5.06841 3.96341 5.13902 3.96334 5.20963 3.96326C5.87078 3.96262 6.53193 3.96287 7.19308 3.96341C7.79691 3.96388 8.40073 3.96327 9.00455 3.96215C9.62574 3.961 10.2469 3.96056 10.8681 3.96087C11.2164 3.96103 11.5647 3.96093 11.913 3.96011C12.2094 3.95941 12.5059 3.95939 12.8024 3.9602C12.9534 3.9606 13.1044 3.9606 13.2555 3.95998C14.7137 3.95447 14.7137 3.95447 15.3281 4.45298C15.3574 4.47648 15.3867 4.49999 15.4169 4.52421C15.8195 4.88471 15.9981 5.40188 16.0406 5.92952C16.045 6.04906 16.0466 6.16826 16.0469 6.28788C16.0473 6.33155 16.0476 6.37522 16.0479 6.42021C16.0484 6.51195 16.0486 6.6037 16.0486 6.69544C16.0488 6.834 16.0505 6.97248 16.0523 7.11103C16.0568 7.87581 15.9637 8.50575 15.4042 9.0731C15.3636 9.1108 15.323 9.14851 15.2812 9.18735C15.3089 9.21575 15.3367 9.24415 15.3652 9.27341C15.8675 9.80597 16.046 10.3074 16.0453 11.0312C16.0455 11.0762 16.0457 11.1212 16.0459 11.1676C16.0462 11.2622 16.0462 11.3568 16.046 11.4515C16.0458 11.5948 16.047 11.7382 16.0481 11.8816C16.0508 12.6914 15.9479 13.3152 15.3749 13.9217C15.344 13.9527 15.3131 13.9836 15.2812 14.0155C15.305 14.036 15.3288 14.0566 15.3533 14.0777C15.7412 14.4351 15.9957 14.905 16.0403 15.4368C16.0443 15.5561 16.0454 15.675 16.0453 15.7943C16.0455 15.8382 16.0457 15.882 16.0459 15.9271C16.0462 16.0194 16.0462 16.1117 16.046 16.204C16.0458 16.3434 16.0469 16.4827 16.0481 16.6221C16.0509 17.4327 15.9754 18.0658 15.413 18.6942C14.9609 19.1178 14.3855 19.2336 13.7895 19.2292C13.7401 19.2293 13.6907 19.2293 13.6397 19.2293C13.4774 19.2292 13.3151 19.2285 13.1528 19.2278C13.0398 19.2276 12.9268 19.2274 12.8139 19.2274C12.5174 19.227 12.2208 19.2261 11.9243 19.225C11.5681 19.2239 11.2119 19.2235 10.8556 19.2229C10.3152 19.222 9.77477 19.2202 9.23432 19.2186C9.23432 19.992 9.23432 20.7655 9.23432 21.5624C9.40931 21.5607 9.5843 21.5591 9.7646 21.5574C9.93479 21.5563 10.105 21.5555 10.2752 21.5546C10.3931 21.5539 10.511 21.553 10.629 21.5517C10.7989 21.55 10.9687 21.5492 11.1386 21.5486C11.191 21.5479 11.2434 21.5472 11.2974 21.5464C11.6303 21.5463 11.9165 21.5671 12.1902 21.777C12.2115 21.8028 12.2329 21.8287 12.2548 21.8553C12.277 21.8807 12.2992 21.9061 12.322 21.9322C12.3955 22.0696 12.4023 22.2059 12.4218 22.3592C12.4966 22.3588 12.4966 22.3588 12.573 22.3583C13.0433 22.3554 13.5137 22.3533 13.9841 22.3519C14.2259 22.3512 14.4677 22.3502 14.7095 22.3486C14.9429 22.3471 15.1764 22.3463 15.4098 22.3459C15.4988 22.3456 15.5878 22.3451 15.6768 22.3444C15.8015 22.3433 15.9263 22.3432 16.0511 22.3433C16.1061 22.3425 16.1061 22.3425 16.1623 22.3417C16.3872 22.343 16.5383 22.378 16.7343 22.4999C16.8361 22.6238 16.828 22.6888 16.8222 22.8514C16.7755 23.0383 16.7478 23.0907 16.5937 23.203C16.4531 23.2205 16.3299 23.2267 16.1894 23.2243C16.1284 23.2243 16.1284 23.2243 16.0661 23.2243C15.9316 23.2242 15.7972 23.2228 15.6628 23.2213C15.5695 23.2209 15.4763 23.2207 15.383 23.2205C15.1376 23.2198 14.8923 23.2179 14.6469 23.2159C14.3965 23.2139 14.1461 23.2131 13.8956 23.2121C13.4044 23.2101 12.9131 23.2069 12.4218 23.203C12.4158 23.254 12.4099 23.305 12.4037 23.3575C12.3647 23.5933 12.2695 23.7402 12.0908 23.8973C11.9107 24.0077 11.7576 24.006 11.551 24.0068C11.5195 24.0069 11.488 24.0071 11.4556 24.0073C11.3499 24.0078 11.2443 24.008 11.1386 24.0082C11.0629 24.0084 10.9872 24.0088 10.9115 24.0091C10.6628 24.0101 10.414 24.0106 10.1652 24.011C10.0796 24.0112 9.99394 24.0114 9.90829 24.0116C9.50591 24.0125 9.10353 24.0132 8.70115 24.0136C8.23673 24.014 7.77232 24.0152 7.30791 24.0171C6.94891 24.0186 6.58991 24.0192 6.2309 24.0194C6.0165 24.0195 5.80211 24.0199 5.58772 24.0211C5.38595 24.0222 5.18421 24.0224 4.98244 24.0219C4.9085 24.0219 4.83456 24.0222 4.76062 24.0228C4.06756 24.0285 4.06756 24.0285 3.79682 23.8124C3.64018 23.6364 3.59526 23.4314 3.56245 23.203C3.52058 23.2034 3.47872 23.2038 3.43558 23.2042C3.04107 23.208 2.64656 23.2109 2.25203 23.2127C2.04919 23.2137 1.84637 23.215 1.64355 23.2171C1.44781 23.2192 1.2521 23.2203 1.05635 23.2208C0.981668 23.2211 0.906986 23.2218 0.832308 23.2228C0.727705 23.2242 0.62316 23.2244 0.518548 23.2243C0.459008 23.2247 0.399468 23.2251 0.338124 23.2255C0.161038 23.199 0.106401 23.1566 -5.22117e-05 23.0155C-0.0344478 22.8718 -0.0266935 22.7385 -5.22117e-05 22.5936C0.10798 22.4393 0.194315 22.3925 0.374948 22.3592C0.479487 22.3538 0.584166 22.351 0.688836 22.3496C0.719953 22.3491 0.75107 22.3487 0.78313 22.3482C0.885593 22.3467 0.988057 22.3456 1.09052 22.3444C1.16172 22.3434 1.23292 22.3424 1.30411 22.3414C1.49122 22.3389 1.67832 22.3365 1.86543 22.3343C2.05647 22.3319 2.24751 22.3293 2.43855 22.3267C2.81318 22.3217 3.18781 22.3169 3.56245 22.3124C3.57616 22.2609 3.58988 22.2094 3.60401 22.1563C3.67284 21.9293 3.7661 21.8056 3.95796 21.6678C4.15778 21.5703 4.34697 21.5565 4.56711 21.557C4.61683 21.557 4.66656 21.557 4.71778 21.557C4.79748 21.5574 4.79748 21.5574 4.87879 21.5578C4.96101 21.5579 4.96101 21.5579 5.04489 21.558C5.21969 21.5582 5.39449 21.5588 5.56928 21.5594C5.68791 21.5597 5.80653 21.5599 5.92515 21.5601C6.21571 21.5605 6.50626 21.5615 6.79682 21.5624C6.79682 20.7889 6.79682 20.0155 6.79682 19.2186C6.4379 19.2202 6.07898 19.2219 5.70918 19.2235C5.48103 19.2243 5.25288 19.2249 5.02473 19.2255C4.66305 19.2263 4.30137 19.2273 3.93969 19.2292C3.64791 19.2307 3.35614 19.2316 3.06436 19.2319C2.95336 19.2322 2.84235 19.2327 2.73135 19.2335C2.57519 19.2345 2.41906 19.2346 2.2629 19.2346C2.19493 19.2353 2.19493 19.2353 2.12558 19.2361C1.5158 19.2334 0.996487 19.0684 0.54725 18.6479C0.107782 18.1775 -0.0144833 17.7085 -0.0157993 17.0777C-0.0161113 17.0253 -0.0164234 16.9729 -0.0167449 16.9189C-0.0172182 16.8083 -0.0174394 16.6976 -0.0174243 16.587C-0.0176289 16.419 -0.0193316 16.2511 -0.0211093 16.0831C-0.0213845 15.9752 -0.0215705 15.8673 -0.0216587 15.7594C-0.0223323 15.7097 -0.0230059 15.6601 -0.0237 15.609C-0.0196774 14.9437 0.277018 14.4573 0.703073 13.9686C0.682105 13.9493 0.661138 13.9299 0.639535 13.91C0.234929 13.5235 0.00435773 13.101 -0.0189922 12.533C-0.0202206 12.4379 -0.0206489 12.3428 -0.0203769 12.2478C-0.0206226 12.1967 -0.0208683 12.1456 -0.0211215 12.093C-0.0214209 11.9857 -0.0213618 11.8783 -0.0209606 11.7709C-0.0205619 11.608 -0.0219118 11.4453 -0.0233982 11.2824C-0.0234738 11.1775 -0.0234466 11.0725 -0.0233066 10.9675C-0.0238332 10.9196 -0.0243598 10.8717 -0.0249023 10.8223C-0.0199381 10.2995 0.125445 9.86365 0.468698 9.4686C0.513635 9.41393 0.558558 9.35924 0.603463 9.30454C0.636335 9.26587 0.669206 9.2272 0.703073 9.18735C0.675338 9.1595 0.647603 9.13164 0.619027 9.10294C0.258163 8.72442 -0.00238217 8.31307 -0.00834918 7.77862C-0.00895083 7.7315 -0.00955248 7.68438 -0.0101724 7.63583C-0.0105186 7.58509 -0.0108649 7.53436 -0.0112216 7.48209C-0.0116 7.42948 -0.0119784 7.37686 -0.0123682 7.32265C-0.0130164 7.21119 -0.0135193 7.09972 -0.0138881 6.98825C-0.014427 6.87482 -0.015384 6.7614 -0.016772 6.64799C-0.0187834 6.48363 -0.0195321 6.31931 -0.0200107 6.15494C-0.0208314 6.10488 -0.0216521 6.05481 -0.0224977 6.00322C-0.0211981 5.54687 0.0929958 5.14598 0.374948 4.7811C0.393498 4.7553 0.412049 4.7295 0.431161 4.70292C0.875159 4.12661 1.52868 3.9619 2.22405 3.96606ZM1.20698 5.11509C1.16311 5.15152 1.16311 5.15152 1.11836 5.1887C0.867189 5.50002 0.815064 5.82503 0.817148 6.215C0.816857 6.26115 0.816566 6.30731 0.816267 6.35486C0.815936 6.45188 0.81608 6.54891 0.816678 6.64593C0.817328 6.79326 0.815729 6.94045 0.813943 7.08777C0.813899 7.18259 0.813986 7.27741 0.814218 7.37223C0.813596 7.41565 0.812975 7.45907 0.812335 7.50381C0.817323 7.85849 0.91741 8.16778 1.16036 8.43365C1.48839 8.74079 1.8129 8.78622 2.24608 8.78365C2.32272 8.78403 2.32272 8.78403 2.40091 8.78442C2.57187 8.78509 2.74281 8.78475 2.91377 8.78442C3.03644 8.78469 3.15911 8.78501 3.28178 8.78539C3.58026 8.7862 3.87873 8.78624 4.17721 8.78599C4.41989 8.7858 4.66257 8.78587 4.90524 8.78612C4.93981 8.78616 4.97438 8.78619 5.01 8.78623C5.08023 8.7863 5.15046 8.78637 5.2207 8.78644C5.87902 8.78709 6.53735 8.78683 7.19568 8.7863C7.79752 8.78583 8.39936 8.78644 9.0012 8.78756C9.61963 8.7887 10.2381 8.78915 10.8565 8.78884C11.2035 8.78868 11.5505 8.78878 11.8975 8.7896C12.2239 8.79036 12.5502 8.79014 12.8766 8.78926C12.9963 8.78909 13.116 8.78923 13.2357 8.78972C13.3992 8.79034 13.5627 8.7898 13.7263 8.78897C13.7971 8.78965 13.7972 8.78965 13.8694 8.79034C14.2328 8.78656 14.517 8.70469 14.8007 8.47251C15.1112 8.09306 15.1942 7.80348 15.1986 7.31931C15.199 7.27925 15.1994 7.23919 15.1998 7.19791C15.2004 7.1132 15.2009 7.02849 15.2013 6.94379C15.2018 6.85797 15.2028 6.77215 15.2042 6.68634C15.2273 5.86537 15.2273 5.86537 14.8505 5.15903C14.5084 4.86469 14.1699 4.80026 13.7284 4.80448C13.6519 4.8041 13.6519 4.8041 13.5738 4.8037C13.4037 4.80306 13.2336 4.80376 13.0634 4.80446C12.9411 4.80428 12.8188 4.80403 12.6965 4.80369C12.3993 4.80304 12.1021 4.80339 11.8049 4.8041C11.4586 4.80489 11.1122 4.80474 10.7658 4.80456C10.1477 4.80429 9.52962 4.80495 8.9115 4.80611C8.31218 4.80723 7.71286 4.80756 7.11354 4.80707C6.4603 4.80653 5.80707 4.80645 5.15383 4.80712C5.08413 4.80719 5.01444 4.80726 4.94474 4.80734C4.91046 4.80737 4.87617 4.80741 4.84084 4.80744C4.5996 4.80767 4.35836 4.80758 4.11711 4.80738C3.79227 4.80712 3.46743 4.80763 3.14259 4.80864C3.02339 4.8089 2.90419 4.80893 2.785 4.80869C2.62226 4.80841 2.45955 4.809 2.29682 4.80981C2.24968 4.80952 2.20255 4.80924 2.15398 4.80895C1.79556 4.81218 1.48643 4.87203 1.20698 5.11509ZM1.12495 9.98423C0.951718 10.2142 0.838977 10.42 0.835401 10.7121C0.834799 10.755 0.834198 10.7979 0.833578 10.8421C0.833231 10.8884 0.832885 10.9346 0.832528 10.9823C0.83215 11.0301 0.831772 11.078 0.831382 11.1272C0.830733 11.2285 0.830231 11.3298 0.829862 11.4311C0.829057 11.5854 0.827 11.7395 0.82493 11.8937C0.824455 11.9923 0.824056 12.0908 0.823739 12.1894C0.822919 12.2352 0.822098 12.281 0.821252 12.3282C0.822388 12.6895 0.905983 12.933 1.14253 13.2069C1.5601 13.5648 1.94095 13.608 2.47572 13.6055C2.52517 13.6057 2.57461 13.6058 2.62556 13.606C2.7904 13.6063 2.95523 13.606 3.12007 13.6057C3.23859 13.6059 3.35712 13.606 3.47564 13.6062C3.76365 13.6066 4.05164 13.6066 4.33964 13.6063C4.5738 13.6061 4.80796 13.606 5.04212 13.6061C5.07551 13.6062 5.10889 13.6062 5.14329 13.6062C5.21112 13.6062 5.27896 13.6063 5.34679 13.6063C5.98216 13.6066 6.61753 13.6062 7.2529 13.6057C7.79753 13.6053 8.34216 13.6054 8.88679 13.6058C9.51996 13.6063 10.1531 13.6065 10.7863 13.6062C10.8539 13.6062 10.9214 13.6062 10.989 13.6061C11.0389 13.6061 11.0389 13.6061 11.0898 13.6061C11.3235 13.606 11.5573 13.6062 11.791 13.6064C12.1059 13.6067 12.4208 13.6065 12.7357 13.6059C12.8511 13.6058 12.9666 13.6058 13.0821 13.606C13.2399 13.6063 13.3976 13.606 13.5554 13.6055C13.601 13.6057 13.6465 13.6059 13.6934 13.6061C14.1567 13.6035 14.516 13.5447 14.8593 13.2186C15.1579 12.895 15.202 12.5206 15.2015 12.0954C15.2017 12.0565 15.2019 12.0176 15.2022 11.9775C15.2024 11.8956 15.2025 11.8137 15.2022 11.7319C15.2021 11.6079 15.2032 11.484 15.2044 11.3601C15.2065 10.8166 15.2065 10.3363 14.8106 9.92289C14.4443 9.60694 14.0335 9.60224 13.5709 9.60265C13.5214 9.60251 13.4719 9.60237 13.4209 9.60222C13.2551 9.60182 13.0893 9.60175 12.9235 9.60168C12.8046 9.60146 12.6857 9.60122 12.5668 9.60097C12.2438 9.60036 11.9208 9.60005 11.5978 9.59984C11.396 9.59972 11.1942 9.59952 10.9924 9.59931C10.4332 9.59873 9.874 9.59825 9.31481 9.59809C9.27905 9.59808 9.24329 9.59807 9.20645 9.59806C9.15268 9.59805 9.15268 9.59805 9.09783 9.59803C9.0252 9.59801 8.95257 9.59799 8.87995 9.59797C8.84392 9.59796 8.80789 9.59795 8.77078 9.59794C8.18715 9.59775 7.60353 9.59693 7.01991 9.59584C6.42018 9.59473 5.82045 9.59415 5.22072 9.59409C4.8842 9.59405 4.54769 9.59378 4.21118 9.59293C3.89461 9.59213 3.57805 9.59205 3.26148 9.59247C3.14542 9.5925 3.02936 9.5923 2.9133 9.59183C2.75459 9.59124 2.59591 9.59151 2.4372 9.592C2.39152 9.59162 2.34584 9.59125 2.29878 9.59086C1.873 9.59391 1.4375 9.67327 1.12495 9.98423ZM1.0431 14.9043C0.85422 15.2114 0.821801 15.4601 0.821725 15.8152C0.821368 15.8615 0.821011 15.9078 0.820644 15.9555C0.820139 16.0531 0.820003 16.1506 0.820215 16.2482C0.82026 16.3964 0.818309 16.5444 0.816232 16.6926C0.815988 16.7878 0.815862 16.8831 0.815866 16.9783C0.815097 17.022 0.814329 17.0657 0.813537 17.1108C0.817233 17.4673 0.917286 17.7741 1.15899 18.043C1.4875 18.3571 1.86232 18.3956 2.2965 18.3933C2.34741 18.3936 2.39831 18.3939 2.45076 18.3942C2.62082 18.395 2.79086 18.3948 2.96092 18.3945C3.08306 18.3949 3.2052 18.3953 3.32734 18.3957C3.62435 18.3967 3.92136 18.3969 4.21838 18.3969C4.45989 18.3968 4.70141 18.397 4.94292 18.3973C5.01259 18.3974 5.08225 18.3975 5.15192 18.3976C5.1866 18.3977 5.22128 18.3977 5.25701 18.3978C5.91232 18.3986 6.56763 18.3986 7.22295 18.3983C7.82187 18.398 8.42079 18.399 9.01972 18.4005C9.63534 18.4021 10.251 18.4028 10.8666 18.4026C11.212 18.4025 11.5573 18.4028 11.9027 18.4039C12.2275 18.405 12.5523 18.4049 12.8771 18.4039C12.9962 18.4038 13.1153 18.404 13.2343 18.4047C13.3972 18.4055 13.5599 18.4049 13.7227 18.404C13.7696 18.4046 13.8165 18.4052 13.8648 18.4058C14.2835 18.4005 14.6088 18.2649 14.9033 17.9647C15.1639 17.6701 15.209 17.2853 15.2061 16.9071C15.2063 16.8671 15.2064 16.827 15.2065 16.7858C15.2066 16.7018 15.2064 16.6178 15.2058 16.5339C15.205 16.4064 15.2058 16.279 15.2067 16.1516C15.2066 16.0694 15.2064 15.9873 15.2061 15.9051C15.2066 15.8489 15.2066 15.8489 15.207 15.7915C15.2021 15.3947 15.0944 15.0092 14.8124 14.7186C14.5631 14.5269 14.3485 14.4318 14.0327 14.4309C13.989 14.4307 13.9454 14.4305 13.9004 14.4302C13.8525 14.4302 13.8047 14.4302 13.7554 14.4301C13.7045 14.4299 13.6535 14.4297 13.6011 14.4295C13.4298 14.4289 13.2585 14.4286 13.0872 14.4283C12.9646 14.4279 12.8421 14.4276 12.7195 14.4272C12.3512 14.426 11.983 14.4253 11.6147 14.4247C11.5107 14.4245 11.4066 14.4244 11.3026 14.4242C10.6562 14.423 10.0098 14.4219 9.36333 14.4214C9.21365 14.4212 9.06398 14.4211 8.9143 14.4209C8.8585 14.4209 8.8585 14.4209 8.80157 14.4208C8.19915 14.4202 7.59673 14.4187 6.9943 14.4167C6.37551 14.4147 5.75672 14.4136 5.13792 14.4134C4.79061 14.4132 4.4433 14.4127 4.096 14.4111C3.76919 14.4097 3.4424 14.4094 3.11559 14.41C2.99575 14.41 2.87591 14.4096 2.75608 14.4088C2.59222 14.4077 2.42843 14.4081 2.26457 14.4089C2.21737 14.4082 2.17016 14.4076 2.12153 14.4069C1.68147 14.4118 1.32593 14.5615 1.0431 14.9043ZM7.64057 19.2186C7.64057 19.992 7.64057 20.7655 7.64057 21.5624C7.88807 21.5624 8.13557 21.5624 8.39057 21.5624C8.39057 20.7889 8.39057 20.0155 8.39057 19.2186C8.14307 19.2186 7.89557 19.2186 7.64057 19.2186ZM4.4062 22.4061C4.4062 22.6536 4.4062 22.9011 4.4062 23.1561C6.77292 23.1561 9.13964 23.1561 11.5781 23.1561C11.5781 22.9086 11.5781 22.6611 11.5781 22.4061C9.21135 22.4061 6.84464 22.4061 4.4062 22.4061Z" fill="#0C7AF7"/>
<path d="M18.1875 -3.99236e-05C18.2747 0.0596067 18.2747 0.0596067 18.3614 0.139853C18.3939 0.169763 18.4265 0.199673 18.46 0.23049C18.5107 0.2788 18.5107 0.2788 18.5625 0.328085C18.5959 0.359808 18.6293 0.391531 18.6637 0.424215C18.8938 0.645547 19.1201 0.870862 19.3467 1.09585C19.4296 1.17801 19.5128 1.25992 19.5962 1.34157C19.7174 1.46021 19.8379 1.5796 19.9581 1.69918C19.9954 1.73542 20.0327 1.77166 20.0712 1.809C20.2706 2.00917 20.4004 2.1527 20.4375 2.43746C20.3694 2.62732 20.325 2.69998 20.1562 2.81246C20.0127 2.84469 20.0127 2.84469 19.8281 2.81246C19.4802 2.58009 19.1917 2.22327 18.8972 1.92861C18.856 1.88733 18.8147 1.84606 18.7722 1.80353C18.671 1.70235 18.5699 1.60116 18.4688 1.49996C18.4686 1.53192 18.4684 1.56388 18.4683 1.5968C18.4645 2.37415 18.4602 3.15149 18.4553 3.92883C18.4529 4.30475 18.4507 4.68066 18.449 5.05658C18.4474 5.3842 18.4456 5.71182 18.4433 6.03944C18.4421 6.21294 18.4411 6.38643 18.4405 6.55993C18.4398 6.75354 18.4383 6.94715 18.4368 7.14075C18.4367 7.19838 18.4366 7.256 18.4365 7.31537C18.436 7.36808 18.4355 7.4208 18.4349 7.47511C18.4345 7.54381 18.4345 7.54381 18.4341 7.6139C18.4212 7.74103 18.3981 7.81546 18.3281 7.92184C18.1562 8.03646 18.0124 8.04945 17.8125 8.01559C17.6985 7.92792 17.6418 7.86177 17.5781 7.73434C17.5732 7.65179 17.5713 7.56907 17.5707 7.48638C17.5702 7.4338 17.5698 7.38121 17.5693 7.32703C17.5689 7.24009 17.5689 7.24009 17.5685 7.1514C17.568 7.09058 17.5676 7.02975 17.5671 6.96709C17.5658 6.80004 17.5648 6.63298 17.5639 6.46593C17.5629 6.29145 17.5616 6.11697 17.5603 5.94248C17.558 5.61196 17.5559 5.28143 17.5539 4.9509C17.5516 4.57466 17.549 4.19842 17.5464 3.82218C17.541 3.04811 17.536 2.27403 17.5312 1.49996C17.4934 1.53805 17.4556 1.57615 17.4166 1.6154C17.2764 1.75642 17.136 1.89729 16.9957 2.03812C16.9349 2.09914 16.8741 2.16021 16.8134 2.22132C16.7263 2.30904 16.639 2.39661 16.5516 2.48415C16.5244 2.51159 16.4972 2.53904 16.4692 2.56731C16.2308 2.80579 16.2308 2.80579 16.0166 2.83004C15.8438 2.81246 15.8438 2.81246 15.709 2.70699C15.5625 2.51742 15.5625 2.51742 15.5625 2.39059C15.6656 2.04577 15.9024 1.83841 16.1545 1.59115C16.1993 1.54657 16.244 1.50196 16.2888 1.45732C16.3822 1.3643 16.4758 1.27158 16.5698 1.17911C16.6902 1.06051 16.8102 0.941407 16.9299 0.822099C17.0443 0.708164 17.159 0.594464 17.2736 0.480795C17.3168 0.437977 17.3599 0.395159 17.4044 0.351043C17.4443 0.311752 17.4842 0.27246 17.5253 0.231978C17.5605 0.197264 17.5957 0.16255 17.6319 0.126785C17.7963 -0.0245125 17.9723 -0.045943 18.1875 -3.99236e-05Z" fill="#0C7AF7"/>
<path d="M21.7969 3.18769C21.936 3.29117 21.9763 3.3511 22.0312 3.51582C22.036 3.59966 22.0381 3.68366 22.0386 3.76763C22.0391 3.81989 22.0396 3.87214 22.04 3.92598C22.0404 4.01201 22.0404 4.01201 22.0409 4.09978C22.0413 4.16015 22.0418 4.22052 22.0423 4.28272C22.0435 4.44832 22.0445 4.61391 22.0454 4.77951C22.0465 4.95256 22.0478 5.1256 22.049 5.29864C22.0514 5.62634 22.0535 5.95405 22.0555 6.28175C22.0578 6.65482 22.0604 7.02789 22.063 7.40096C22.0683 8.16841 22.0733 8.93587 22.0781 9.70332C22.116 9.66523 22.1538 9.62713 22.1928 9.58788C22.333 9.44686 22.4733 9.30599 22.6137 9.16516C22.6745 9.10414 22.7352 9.04307 22.7959 8.98197C22.8831 8.89424 22.9704 8.80667 23.0577 8.71913C23.0849 8.69169 23.1121 8.66424 23.1401 8.63597C23.3786 8.39749 23.3786 8.39749 23.5928 8.37324C23.7656 8.39082 23.7656 8.39082 23.9033 8.48457C24.001 8.62674 24.0469 8.72328 24.0331 8.89778C23.8792 9.37356 23.2002 9.85389 22.8531 10.2001C22.7393 10.3136 22.6259 10.4273 22.5124 10.541C22.4401 10.6134 22.3677 10.6857 22.2953 10.758C22.2614 10.7919 22.2276 10.8259 22.1927 10.8608C22.1613 10.8922 22.1298 10.9235 22.0974 10.9558C22.0698 10.9833 22.0422 11.0108 22.0138 11.0392C21.8575 11.1833 21.7369 11.2328 21.523 11.2269C21.3979 11.1977 21.3423 11.1503 21.2482 11.0635C21.1993 11.0186 21.1993 11.0186 21.1494 10.9729C20.9724 10.8043 20.7972 10.6341 20.6239 10.4617C20.5851 10.4232 20.5463 10.3847 20.5064 10.345C20.4251 10.2642 20.3438 10.1833 20.2627 10.1023C20.1384 9.97842 20.0135 9.85506 19.8887 9.7317C19.8095 9.65281 19.7304 9.5739 19.6512 9.49495C19.6139 9.45822 19.5766 9.4215 19.5382 9.38366C19.5037 9.34908 19.4693 9.31449 19.4338 9.27886C19.4035 9.24873 19.3732 9.21859 19.342 9.18755C19.2189 9.03672 19.1708 8.91029 19.1748 8.71602C19.2319 8.53721 19.2903 8.48284 19.4531 8.39082C19.6084 8.35859 19.6084 8.35859 19.7812 8.39082C20.1114 8.6234 20.3886 8.94577 20.6719 9.23164C20.7176 9.27758 20.7633 9.32351 20.809 9.36943C20.9196 9.48062 21.0302 9.59192 21.1406 9.70332C21.1406 9.67116 21.1407 9.63901 21.1407 9.60588C21.1414 8.82343 21.1434 8.04099 21.1468 7.25854C21.1484 6.88016 21.1496 6.50178 21.1498 6.12339C21.1499 5.79358 21.1509 5.46379 21.1528 5.13399C21.1538 4.95936 21.1544 4.78475 21.154 4.61011C21.1536 4.41515 21.155 4.22024 21.1566 4.02528C21.1562 3.96738 21.1558 3.90949 21.1553 3.84985C21.1612 3.4144 21.1612 3.4144 21.3005 3.26902C21.4893 3.14252 21.5731 3.15573 21.7969 3.18769Z" fill="#0C7AF7"/>
<path d="M4.31256 15.3749C4.59172 15.6033 4.80062 15.9143 4.83935 16.2761C4.85143 16.6665 4.7596 16.9966 4.4942 17.2909C4.21203 17.5454 3.87132 17.6603 3.49316 17.643C3.15814 17.5916 2.89006 17.4661 2.67193 17.203C2.63809 17.1653 2.60426 17.1276 2.56939 17.0888C2.35945 16.7919 2.36146 16.477 2.39068 16.1249C2.4544 15.8084 2.6349 15.5487 2.89715 15.3614C3.33759 15.0986 3.87768 15.1014 4.31256 15.3749ZM3.23443 16.2655C3.19927 16.4082 3.19927 16.4082 3.23443 16.5468C3.3252 16.6712 3.3928 16.7231 3.53619 16.7782C3.69602 16.7821 3.76589 16.7383 3.89068 16.6405C3.97257 16.5289 3.9855 16.4744 3.97857 16.3358C3.92704 16.1886 3.87622 16.1232 3.75006 16.0311C3.4954 15.9824 3.3851 16.0617 3.23443 16.2655Z" fill="#0C7AF7"/>
<path d="M4.41064 10.6545C4.6703 10.8865 4.80286 11.1411 4.83837 11.4918C4.85412 11.8744 4.73031 12.1784 4.49358 12.4768C4.27363 12.6926 3.96705 12.8268 3.65917 12.8466C3.20531 12.8329 2.91976 12.6806 2.61034 12.3544C2.38246 12.0084 2.33954 11.7099 2.39062 11.2968C2.49558 10.9465 2.70315 10.7071 2.99999 10.5C3.45921 10.2594 4.00566 10.3522 4.41064 10.6545ZM3.30468 11.3466C3.21297 11.5262 3.22785 11.6203 3.28124 11.8125C3.3272 11.9092 3.3272 11.9092 3.42187 11.9531C3.60664 11.9766 3.70728 11.9834 3.86132 11.874C3.94777 11.751 3.9807 11.6817 3.98437 11.5312C3.90228 11.3572 3.90228 11.3572 3.74999 11.25C3.55346 11.2281 3.46015 11.2184 3.30468 11.3466Z" fill="#0C7AF7"/>
<path d="M4.2052 5.70395C4.50932 5.87885 4.68203 6.11091 4.79718 6.4404C4.89382 6.8218 4.83435 7.15901 4.64062 7.50003C4.4484 7.76048 4.20441 7.93344 3.89062 8.01566C3.45281 8.07236 3.14308 7.97887 2.77734 7.74613C2.50319 7.47197 2.38552 7.19579 2.37598 6.81155C2.37932 6.46879 2.46732 6.22921 2.68359 5.96488C3.15383 5.58014 3.62769 5.44086 4.2052 5.70395ZM3.32812 6.51566C3.21818 6.68057 3.20719 6.74336 3.23437 6.93753C3.35091 7.09519 3.41786 7.16256 3.6123 7.19827C3.7834 7.16551 3.83698 7.12587 3.9375 6.98441C3.99209 6.8483 3.99209 6.8483 3.98437 6.70316C3.89328 6.53919 3.83606 6.48103 3.65625 6.42484C3.50946 6.42178 3.44634 6.43122 3.32812 6.51566Z" fill="#0C7AF7"/>
<path d="M12.3926 15.9637C12.4726 15.9614 12.4726 15.9614 12.5541 15.9591C12.9454 15.9565 12.9454 15.9565 13.1369 16.0925C13.245 16.2591 13.2502 16.3516 13.2188 16.5467C13.1186 16.7056 13.0698 16.7683 12.8907 16.828C12.7288 16.8399 12.5666 16.8388 12.4043 16.8397C12.36 16.8407 12.3156 16.8416 12.2699 16.8426C11.8568 16.845 11.8568 16.845 11.6719 16.6874C11.5629 16.5239 11.5625 16.4576 11.5782 16.2655C11.7117 15.8956 12.062 15.9654 12.3926 15.9637Z" fill="#0C7AF7"/>
<path d="M12.3926 6.36629C12.442 6.36572 12.4914 6.36514 12.5424 6.36455C12.59 6.36446 12.6376 6.36437 12.6866 6.36428C12.752 6.36399 12.752 6.36399 12.8187 6.36369C12.9439 6.3757 13.019 6.40248 13.125 6.46883C13.2441 6.62961 13.2395 6.79034 13.2188 6.98445C13.1312 7.09531 13.0631 7.15603 12.9375 7.21883C12.761 7.23265 12.5842 7.23186 12.4072 7.23348C12.3337 7.23552 12.3337 7.23552 12.2586 7.2376C11.8958 7.2406 11.8958 7.2406 11.7109 7.13002C11.6081 7.01187 11.5808 6.96195 11.5635 6.80574C11.5815 6.62207 11.6387 6.5526 11.7656 6.42195C11.9519 6.3288 12.1878 6.36641 12.3926 6.36629Z" fill="#0C7AF7"/>
<path d="M10.0079 15.9522C10.0607 15.9509 10.1136 15.9496 10.1681 15.9482C10.5401 15.9493 10.5401 15.9493 10.6826 16.0424C10.7728 16.1429 10.8234 16.2369 10.8458 16.3702C10.8199 16.5052 10.7972 16.6183 10.7169 16.7315C10.5046 16.8702 10.2571 16.8386 10.0137 16.8399C9.96938 16.8408 9.92503 16.8418 9.87933 16.8428C9.6418 16.8441 9.47295 16.8448 9.28131 16.6875C9.16281 16.569 9.1711 16.4826 9.16138 16.3204C9.26871 15.9038 9.6589 15.9476 10.0079 15.9522Z" fill="#0C7AF7"/>
<path d="M9.97558 6.36326C10.0224 6.36229 10.0692 6.36133 10.1174 6.36033C10.5478 6.35804 10.5478 6.35804 10.7344 6.5156C10.8322 6.64006 10.8281 6.70627 10.8252 6.86717C10.7812 7.03123 10.7812 7.03123 10.6952 7.13413C10.4702 7.26245 10.2591 7.24231 10.0049 7.23631C9.95609 7.23625 9.90729 7.23619 9.85702 7.23612C9.44513 7.23136 9.44513 7.23136 9.28125 7.12498C9.16663 6.95305 9.15364 6.8093 9.1875 6.60935C9.40591 6.32541 9.64387 6.36495 9.97558 6.36326Z" fill="#0C7AF7"/>
<path d="M12.3955 11.1415C12.4346 11.1407 12.4736 11.1399 12.5139 11.1392C12.7521 11.139 12.9203 11.1616 13.125 11.2967C13.2422 11.4725 13.2439 11.5573 13.2188 11.7655C13.1371 11.8916 13.1371 11.8916 12.9844 11.9998C12.7876 12.0337 12.5947 12.0304 12.3955 12.0262C12.3422 12.0267 12.289 12.0272 12.2341 12.0278C11.8434 12.0243 11.8434 12.0243 11.7048 11.9145C11.5928 11.7712 11.5813 11.6646 11.5781 11.4842C11.6356 11.3406 11.6779 11.2724 11.8138 11.1975C12.0089 11.1395 12.193 11.1407 12.3955 11.1415Z" fill="#0C7AF7"/>
<path d="M9.99903 11.1446C10.0385 11.1436 10.078 11.1427 10.1187 11.1417C10.3599 11.1402 10.5253 11.1628 10.7344 11.2969C10.8362 11.4209 10.8281 11.4858 10.8223 11.6485C10.7764 11.832 10.7398 11.8847 10.5938 12.0001C10.4013 12.0385 10.2067 12.0283 10.0108 12.0264C9.95767 12.0276 9.90458 12.0287 9.84989 12.0298C9.46262 12.0291 9.46262 12.0291 9.26972 11.8915C9.16036 11.7241 9.15247 11.6338 9.18751 11.4376C9.42709 11.1397 9.64482 11.1467 9.99903 11.1446Z" fill="#0C7AF7"/>
</g>
<defs>
<clipPath id="clip0_668_69">
<rect width="24" height="24" fill="white"/>
</clipPath>
</defs>
</svg>
