<svg width="24" height="24" viewBox="0 0 24 24" fill="none" xmlns="http://www.w3.org/2000/svg">
<g clip-path="url(#clip0_668_32)">
<path d="M14.1094 0.140814C14.1725 0.152133 14.1725 0.152133 14.2369 0.16368C16.3315 0.542699 18.283 1.49865 19.8751 2.90644C19.9137 2.93985 19.9523 2.97327 19.9921 3.0077C20.5466 3.49482 21.062 4.01283 21.5017 4.60625C21.562 4.68693 21.6237 4.76627 21.6858 4.84553C22.8084 6.29897 23.5604 8.08175 23.8594 9.89081C23.8653 9.92589 23.8711 9.96097 23.8771 9.99711C23.9854 10.6663 24.0233 11.3199 24.0176 11.9973C24.0173 12.068 24.0173 12.068 24.017 12.1401C24.0133 12.8201 23.9993 13.4886 23.8594 14.1564C23.8455 14.225 23.8455 14.225 23.8312 14.2949C23.4483 16.1253 22.7162 17.8344 21.5626 19.3127C21.5305 19.3547 21.4984 19.3967 21.4653 19.4399C21.2184 19.757 20.949 20.0532 20.6719 20.3439C20.6317 20.3862 20.6317 20.3862 20.5907 20.4292C20.2153 20.8206 19.8298 21.1789 19.394 21.5019C19.3133 21.5621 19.234 21.6238 19.1547 21.6859C17.7039 22.8065 15.9513 23.5243 14.1563 23.8596C14.1186 23.8672 14.0808 23.8748 14.042 23.8826C12.7299 24.1392 11.1522 24.1336 9.84381 23.8596C9.77527 23.8456 9.77527 23.8456 9.70534 23.8313C7.39821 23.3487 5.36244 22.297 3.65631 20.6721C3.62824 20.6453 3.60016 20.6186 3.57123 20.5911C3.17982 20.2156 2.82137 19.83 2.49837 19.3941C2.43813 19.3134 2.37643 19.2341 2.31433 19.1549C1.19376 17.704 0.475993 15.9515 0.140685 14.1564C0.13308 14.1187 0.125474 14.081 0.117637 14.0421C-0.138903 12.73 -0.133342 11.1523 0.140685 9.84394C0.149998 9.79824 0.159311 9.75255 0.168907 9.70547C0.550897 7.87935 1.27969 6.15904 2.43756 4.68769C2.47309 4.64225 2.50862 4.59681 2.54523 4.54999C3.12303 3.82876 3.77052 3.14654 4.50006 2.57831C4.54393 2.54248 4.5878 2.50665 4.63299 2.46973C6.14557 1.25851 7.99317 0.486426 9.89069 0.140814C9.92986 0.13314 9.96903 0.125467 10.0094 0.11756C11.3088 -0.130536 12.8128 -0.112283 14.1094 0.140814ZM3.83546 4.64182C3.61779 4.87822 3.4239 5.13162 3.23444 5.39081C3.21253 5.42049 3.19063 5.45017 3.16806 5.48074C3.1019 5.5706 3.03619 5.66077 2.97076 5.75117C2.95077 5.77876 2.93078 5.80635 2.91018 5.83478C2.82668 5.95222 2.76469 6.05004 2.71881 6.18769C2.84814 6.22408 2.96354 6.24064 3.09775 6.24137C3.13506 6.24167 3.17238 6.24197 3.21082 6.24228C3.251 6.24233 3.29118 6.24238 3.33258 6.24244C3.39595 6.24267 3.39595 6.24267 3.46061 6.24291C3.55045 6.24315 3.64029 6.24326 3.73012 6.24325C3.86416 6.24335 3.99817 6.2442 4.1322 6.24509C4.56702 6.24645 4.99732 6.23565 5.43024 6.193C5.46734 6.18936 5.50444 6.18571 5.54267 6.18196C5.76308 6.1578 5.97618 6.11859 6.19188 6.06728C6.42564 6.01444 6.62658 6.01036 6.84381 6.11445C6.97809 6.28649 6.99637 6.44116 6.98444 6.65644C6.9377 6.79976 6.8981 6.8623 6.76398 6.93275C6.54739 7.01929 6.32059 7.07254 6.09381 7.12519C6.19172 7.49867 6.30386 7.86597 6.42358 8.23298C6.45166 8.31961 6.47974 8.40625 6.50781 8.49288C6.53762 8.58483 6.56748 8.67675 6.59736 8.76868C6.70396 9.09672 6.81008 9.42491 6.91614 9.75312C6.92696 9.78661 6.93779 9.82009 6.94894 9.85459C7.16518 10.5239 7.37712 11.1944 7.58795 11.8654C7.93598 12.9727 8.29168 14.0773 8.65071 15.181C8.70227 15.3395 8.75377 15.4981 8.80524 15.6566C8.81517 15.6872 8.82511 15.7178 8.83535 15.7494C9.06792 16.4666 9.29236 17.1863 9.51569 17.9064C9.61942 17.8027 9.64241 17.7385 9.68919 17.6011C9.70447 17.5567 9.71975 17.5122 9.73549 17.4665C9.75196 17.4177 9.76843 17.3689 9.7854 17.3187C9.80289 17.2676 9.82039 17.2166 9.83841 17.164C9.87629 17.0534 9.91406 16.9427 9.95172 16.832C10.0412 16.569 10.1315 16.3061 10.2217 16.0433C10.2423 15.9833 10.2629 15.9233 10.2835 15.8632C10.5009 15.2293 10.7238 14.5974 10.9483 13.966C10.9739 13.8939 10.9739 13.8939 11.0001 13.8204C11.0167 13.7736 11.0334 13.7269 11.0505 13.6787C11.0664 13.6338 11.0824 13.5889 11.0989 13.5426C11.1284 13.4596 11.158 13.3766 11.1876 13.2936C11.2132 13.2217 11.2385 13.1498 11.2636 13.0777C11.2919 12.9987 11.3237 12.9209 11.3562 12.8435C11.4373 12.5137 11.329 12.1979 11.2134 11.8887C11.2001 11.8517 11.1867 11.8147 11.1729 11.7765C11.1287 11.6547 11.0839 11.533 11.0391 11.4113C11.0078 11.3251 10.9765 11.2389 10.9453 11.1527C10.8959 11.0163 10.8465 10.8799 10.7969 10.7436C10.6175 10.2503 10.4424 9.75554 10.2675 9.26066C10.2172 9.11809 10.1667 8.97554 10.1163 8.833C10.1004 8.78801 10.0845 8.74302 10.0681 8.69666C10.037 8.609 10.0058 8.52139 9.97447 8.43383C9.90217 8.2313 9.83228 8.02863 9.76803 7.82339C9.75605 7.78628 9.74407 7.74917 9.73172 7.71093C9.70965 7.64219 9.68845 7.57315 9.66833 7.50381C9.63732 7.40041 9.63732 7.40041 9.56256 7.26581C9.42969 7.1946 9.42969 7.1946 9.28131 7.17206C9.2436 7.16361 9.20589 7.15515 9.16704 7.14644C9.13073 7.13997 9.09442 7.1335 9.05701 7.12684C9.01667 7.11931 8.97634 7.11179 8.93478 7.10404C8.8512 7.08882 8.76758 7.0738 8.68393 7.059C8.19428 6.9668 8.19428 6.9668 8.04773 6.75458C7.98969 6.57683 8.01323 6.41263 8.06256 6.23456C8.15631 6.11445 8.15631 6.11445 8.29694 6.04706C8.60503 6.01112 8.89825 6.07271 9.20015 6.1335C9.71331 6.23369 10.2353 6.24194 10.7566 6.24244C10.8149 6.24259 10.8732 6.24275 10.9333 6.24291C11.0559 6.24315 11.1785 6.24326 11.3011 6.24325C11.4857 6.24335 11.6703 6.2442 11.8549 6.24509C12.6288 6.24686 13.4022 6.2466 14.1589 6.06744C14.417 6.00978 14.6376 5.99669 14.8653 6.13788C14.9668 6.3037 14.9794 6.406 14.9797 6.59638C14.9414 6.75089 14.8795 6.82649 14.7657 6.93769C14.6038 7.00159 14.6038 7.00159 14.4258 7.04609C14.3666 7.06138 14.3074 7.07666 14.2464 7.09241C14.2012 7.10323 14.156 7.11405 14.1094 7.12519C14.1807 7.47959 14.2854 7.81757 14.398 8.16083C14.4176 8.22115 14.4372 8.28147 14.4568 8.3418C14.4986 8.47056 14.5406 8.59928 14.5826 8.72798C14.6955 9.07362 14.8075 9.41951 14.9197 9.76539C14.9311 9.80053 14.9425 9.83567 14.9542 9.87188C15.1754 10.5538 15.3917 11.2371 15.6065 11.9211C15.9423 12.9896 16.2856 14.0555 16.6312 15.1208C16.9674 16.1572 17.3002 17.1946 17.6251 18.2346C17.7167 18.0971 17.7577 17.9905 17.8072 17.8341C17.8243 17.7803 17.8415 17.7265 17.8592 17.671C17.8777 17.6121 17.8962 17.5531 17.9153 17.4924C17.935 17.4301 17.9548 17.3679 17.9746 17.3056C18.0279 17.1375 18.081 16.9694 18.134 16.8013C18.1892 16.6264 18.2445 16.4515 18.2999 16.2767C18.3676 16.0626 18.4353 15.8484 18.5029 15.6342C18.6297 15.2325 18.7569 14.8309 18.885 14.4296C18.9587 14.1985 19.0321 13.9673 19.1055 13.7362C19.1398 13.6285 19.1741 13.5208 19.2086 13.4132C19.2564 13.2637 19.3038 13.114 19.3512 12.9642C19.3719 12.8999 19.3719 12.8999 19.3931 12.8343C19.8179 11.482 19.3348 10.3705 18.7178 9.17597C18.5055 8.76993 18.2769 8.37555 18.0411 7.98275C17.8531 7.66744 17.6758 7.34761 17.5049 7.02265C17.482 6.97954 17.4591 6.93642 17.4355 6.892C17.003 6.05899 16.8853 5.22418 17.1563 4.31269C17.3227 3.84047 17.5767 3.4565 18.027 3.21735C18.1264 3.17209 18.2254 3.13087 18.3282 3.09394C18.1347 2.87975 17.9195 2.7394 17.6719 2.59296C17.6308 2.56857 17.5898 2.54418 17.5474 2.51905C16.2217 1.74533 14.7893 1.2663 13.2657 1.07831C13.2318 1.0739 13.1979 1.06948 13.1629 1.06492C9.6419 0.6541 6.243 2.11369 3.83546 4.64182ZM18.296 4.29218C18.006 4.67843 17.9928 5.19414 18.0312 5.65874C18.077 5.97001 18.2268 6.24241 18.3751 6.51581C18.3919 6.54766 18.4087 6.5795 18.426 6.61231C18.6349 7.0063 18.8613 7.39006 19.0871 7.77453C19.923 9.19882 19.923 9.19882 20.2032 9.93769C20.3062 9.89978 20.3062 9.89978 20.3304 9.79577C20.3405 9.75408 20.3506 9.71239 20.361 9.66944C20.3725 9.62247 20.3839 9.5755 20.3957 9.52711C20.4076 9.47601 20.4195 9.42491 20.4317 9.37226C20.444 9.31992 20.4564 9.26758 20.4691 9.21366C20.5527 8.85034 20.6249 8.48601 20.6866 8.11835C20.694 8.07403 20.7015 8.0297 20.7092 7.98403C20.8825 6.89896 20.9295 5.75926 20.2964 4.81165C20.0328 4.46111 19.7126 4.11842 19.2657 4.03144C18.8696 4.00275 18.5939 4.00809 18.296 4.29218ZM2.62506 7.21894C2.63817 7.25593 2.65128 7.29291 2.66479 7.33102C2.94789 8.13014 3.2287 8.93001 3.50647 9.731C3.80565 10.5936 4.10951 11.4543 4.41745 12.3138C4.43202 12.3545 4.44659 12.3952 4.46161 12.4371C4.47624 12.4779 4.49088 12.5188 4.50595 12.5609C4.67804 13.0415 4.84834 13.5228 5.01861 14.0041C5.08587 14.1942 5.15313 14.3842 5.2204 14.5743C5.2377 14.6232 5.25501 14.6721 5.27283 14.7225C5.53768 15.4707 5.80327 16.2187 6.06877 16.9667C6.10163 17.0593 6.13449 17.1519 6.16735 17.2445C6.18939 17.3066 6.21143 17.3687 6.23348 17.4308C6.39371 17.8822 6.55385 18.3337 6.71392 18.7852C6.78328 18.9808 6.85266 19.1765 6.92204 19.3721C6.97687 19.5267 7.03169 19.6813 7.08649 19.8359C7.10702 19.8939 7.12756 19.9518 7.14872 20.0115C7.16886 20.0684 7.189 20.1252 7.20975 20.1837C7.26825 20.3486 7.32698 20.5133 7.38573 20.678C7.46452 20.8992 7.54193 21.1208 7.6186 21.3427C7.65642 21.4509 7.69423 21.559 7.73205 21.6672C7.75772 21.7427 7.75772 21.7427 7.78389 21.8198C7.8 21.8655 7.81611 21.9113 7.83271 21.9584C7.8466 21.9987 7.8605 22.039 7.87482 22.0805C7.91696 22.1886 7.91696 22.1886 8.06256 22.2189C8.07234 22.1907 8.08211 22.1624 8.09218 22.1333C8.19401 21.839 8.29592 21.5447 8.39787 21.2505C8.4359 21.1407 8.47391 21.0309 8.5119 20.9211C8.56654 20.7632 8.62124 20.6053 8.67596 20.4474C8.69291 20.3984 8.70986 20.3493 8.72732 20.2988C8.74326 20.2528 8.75921 20.2069 8.77564 20.1595C8.78959 20.1192 8.80354 20.079 8.81791 20.0374C8.84667 19.9575 8.87826 19.8786 8.91202 19.8006C9.02738 19.4841 8.84703 19.0989 8.74683 18.7958C8.73048 18.7454 8.71413 18.695 8.69729 18.643C8.66185 18.5339 8.62626 18.4248 8.59054 18.3157C8.50332 18.0493 8.41701 17.7827 8.33064 17.5161C8.30057 17.4233 8.27047 17.3306 8.24036 17.2378C8.05808 16.6759 7.88031 16.1126 7.70333 15.549C7.36477 14.4711 7.0192 13.3956 6.67036 12.3209C6.31356 11.2218 5.96196 10.1211 5.61609 9.0185C5.47403 8.56592 5.33156 8.11354 5.18268 7.66315C5.17109 7.62785 5.1595 7.59255 5.14757 7.55618C5.10388 7.39857 5.10388 7.39857 5.01569 7.26581C4.94091 7.26006 4.86589 7.25748 4.79091 7.25619C4.71912 7.25479 4.71912 7.25479 4.64589 7.25336C4.56781 7.25218 4.56781 7.25218 4.48816 7.25098C4.43516 7.25001 4.38217 7.24903 4.32756 7.24803C4.15753 7.24495 3.98749 7.2422 3.81744 7.23945C3.70248 7.23742 3.58752 7.23538 3.47256 7.23331C3.19007 7.22828 2.90757 7.22351 2.62506 7.21894ZM21.8438 7.21894C21.8354 7.27401 21.8354 7.27401 21.8268 7.3302C21.8013 7.49626 21.7757 7.66229 21.7501 7.82831C21.7383 7.9047 21.7383 7.9047 21.7264 7.98263C21.627 8.62104 21.5099 9.24884 21.3467 9.87415C21.3387 9.90504 21.3306 9.93592 21.3224 9.96775C21.1507 10.6271 20.9493 11.2761 20.7393 11.9242C20.6883 12.082 20.6378 12.24 20.5872 12.3979C20.5129 12.6301 20.4384 12.8623 20.3637 13.0943C20.2276 13.5174 20.0924 13.9409 19.9578 14.3644C19.9478 14.3961 19.9377 14.4277 19.9273 14.4603C19.8867 14.5883 19.846 14.7162 19.8054 14.8442C19.6933 15.197 19.581 15.5498 19.4687 15.9025C19.4482 15.9671 19.4277 16.0316 19.4071 16.0962C19.278 16.5017 19.1489 16.9072 19.0196 17.3128C18.9422 17.5557 18.8648 17.7987 18.7875 18.0416C18.7352 18.2057 18.6829 18.3698 18.6306 18.5338C18.517 18.8901 18.4037 19.2466 18.291 19.6032C18.2415 19.7592 18.1917 19.9151 18.1417 20.071C18.1012 20.1976 18.061 20.3244 18.0209 20.4511C17.9926 20.5403 17.9639 20.6293 17.9352 20.7184C17.9183 20.7718 17.9015 20.8252 17.8842 20.8803C17.8617 20.9509 17.8617 20.9509 17.8387 21.0229C17.8008 21.1458 17.8008 21.1458 17.8594 21.2814C18.5034 20.8652 19.0845 20.4033 19.6407 19.8752C19.6657 19.8515 19.6908 19.8278 19.7166 19.8034C20.1055 19.4327 20.4458 19.0409 20.7657 18.6096C20.7855 18.5832 20.8054 18.5568 20.8259 18.5296C21.9835 16.9876 22.6862 15.1764 22.9219 13.2658C22.9264 13.2319 22.9308 13.198 22.9353 13.1631C23.1744 11.1143 22.7452 9.07865 21.8907 7.21894C21.8752 7.21894 21.8597 7.21894 21.8438 7.21894ZM10.6407 7.26581C10.718 7.48431 10.7954 7.70281 10.8751 7.92792C11.0491 8.42008 11.2219 8.91264 11.3927 9.40595C11.8457 10.721 11.8457 10.721 12.3323 12.0239C12.384 12.1653 12.4311 12.3081 12.4785 12.451C12.5364 12.6248 12.5966 12.7977 12.6569 12.9706C12.6702 13.009 12.6835 13.0473 12.6973 13.0868C12.7412 13.2129 12.7852 13.339 12.8292 13.465C12.8446 13.5093 12.86 13.5535 12.8759 13.5991C13.1841 14.4822 13.4971 15.3636 13.8111 16.2446C13.9452 16.6212 14.0789 16.9979 14.2125 17.3747C14.2339 17.435 14.2553 17.4952 14.2766 17.5555C14.3091 17.6472 14.3417 17.739 14.3742 17.8307C14.8931 19.2942 15.4146 20.7569 15.9376 22.2189C16.0127 22.1974 16.0878 22.1755 16.1628 22.1536C16.2046 22.1414 16.2464 22.1293 16.2895 22.1168C16.4198 22.0739 16.5283 22.0164 16.6407 21.9377C16.5943 21.9222 16.5479 21.9068 16.5001 21.8908C16.5281 21.8075 16.5281 21.8075 16.5567 21.7224C16.6261 21.516 16.6946 21.3093 16.763 21.1026C16.7927 21.0132 16.8225 20.9239 16.8526 20.8346C16.8958 20.7062 16.9383 20.5775 16.9807 20.4489C16.9943 20.4091 17.0079 20.3693 17.0218 20.3282C17.0401 20.272 17.0401 20.272 17.0588 20.2145C17.0752 20.1654 17.0752 20.1654 17.0919 20.1152C17.1283 19.9088 17.0437 19.7124 16.9803 19.5175C16.9632 19.4651 16.9462 19.4126 16.9287 19.3585C16.9101 19.3016 16.8915 19.2447 16.8723 19.186C16.8526 19.1254 16.833 19.0648 16.8133 19.0042C16.7712 18.8743 16.7289 18.7445 16.6867 18.6147C16.5733 18.2665 16.4605 17.9181 16.3477 17.5697C16.3362 17.5343 16.3248 17.4989 16.313 17.4624C16.0916 16.7785 15.8747 16.0932 15.6592 15.4074C15.3296 14.3586 14.9927 13.3124 14.6532 12.2667C14.4202 11.5493 14.1883 10.8315 13.9617 10.112C13.9472 10.0662 13.9472 10.0662 13.9325 10.0195C13.8332 9.70431 13.7343 9.38903 13.6358 9.07361C13.6196 9.02179 13.6033 8.96996 13.5866 8.91656C13.5572 8.82293 13.528 8.72925 13.4989 8.63553C13.3542 8.17446 13.1913 7.72287 13.0313 7.26581C12.2424 7.26581 11.4535 7.26581 10.6407 7.26581ZM1.78131 8.01581C0.681216 10.3231 0.813592 13.2716 1.62275 15.6381C1.97797 16.6318 2.46937 17.5722 3.09381 18.4221C3.12317 18.4625 3.12317 18.4625 3.15311 18.5037C3.44939 18.9092 3.7772 19.279 4.12506 19.6408C4.14942 19.6664 4.17378 19.6921 4.19887 19.7185C4.56889 20.1066 4.95947 20.4473 5.39069 20.7658C5.41882 20.7867 5.44696 20.8075 5.47594 20.829C5.81155 21.0766 6.15249 21.3099 6.51569 21.5158C6.57011 21.3526 6.55417 21.3177 6.49803 21.1603C6.48258 21.1164 6.46714 21.0724 6.45123 21.0272C6.43389 20.9792 6.41655 20.9313 6.39868 20.8819C6.3809 20.8317 6.36313 20.7815 6.34481 20.7298C6.28596 20.5639 6.22651 20.3983 6.16705 20.2326C6.12574 20.1165 6.08447 20.0004 6.04324 19.8843C5.93911 19.5914 5.83452 19.2986 5.72981 19.0059C5.64684 18.7737 5.56431 18.5413 5.48187 18.3089C5.36214 17.9715 5.2422 17.6342 5.12207 17.2969C4.89981 16.6728 4.67829 16.0484 4.45678 15.424C4.41282 15.3 4.36885 15.1761 4.32488 15.0522C4.23581 14.8011 4.14675 14.5501 4.05768 14.299C3.91573 13.8989 3.77376 13.4988 3.63177 13.0986C3.62115 13.0687 3.61053 13.0388 3.59958 13.0079C3.54604 12.857 3.49249 12.7061 3.43895 12.5552C3.34368 12.2868 3.24842 12.0183 3.15316 11.7498C3.09973 11.5993 3.0463 11.4487 2.99287 11.2981C2.97099 11.2364 2.94911 11.1748 2.92722 11.1131C2.91617 11.0819 2.90511 11.0508 2.89372 11.0187C2.53854 10.0177 2.18336 9.01677 1.82819 8.01581C1.81272 8.01581 1.79725 8.01581 1.78131 8.01581ZM11.9532 14.1564C11.9438 14.1837 11.9344 14.211 11.9247 14.2392C11.4924 15.4961 11.0584 16.7522 10.6128 18.0045C10.3081 18.8609 10.0099 19.7196 9.71434 20.5793C9.68128 20.6753 9.6482 20.7713 9.61511 20.8673C9.59923 20.9134 9.58336 20.9595 9.567 21.007C9.43652 21.384 9.3003 21.7589 9.16013 22.1325C9.14526 22.1726 9.13039 22.2128 9.11506 22.2542C9.10187 22.2894 9.08868 22.3246 9.07508 22.3608C9.04011 22.4596 9.04011 22.4596 9.04694 22.5939C11.0438 23.0904 12.9563 23.0904 14.9532 22.5939C14.9178 22.3777 14.8469 22.1759 14.7743 21.9699C14.7608 21.9313 14.7473 21.8927 14.7335 21.8529C14.6887 21.7249 14.6437 21.5969 14.5987 21.4689C14.5667 21.3777 14.5348 21.2865 14.5028 21.1953C14.209 20.3573 13.9114 19.5207 13.6133 18.6842C13.4722 18.2884 13.3317 17.8925 13.1913 17.4965C13.1684 17.4319 13.1456 17.3673 13.1227 17.3028C13.0323 17.0479 12.9419 16.793 12.8516 16.5381C12.57 15.7434 12.2865 14.9494 12.0001 14.1564C11.9846 14.1564 11.9691 14.1564 11.9532 14.1564Z" fill="#0C7AF7"/>
</g>
<defs>
<clipPath id="clip0_668_32">
<rect width="24" height="24" fill="white"/>
</clipPath>
</defs>
</svg>
