<svg width="24" height="24" viewBox="0 0 24 24" fill="none" xmlns="http://www.w3.org/2000/svg">
<g clip-path="url(#clip0_668_36)">
<path d="M5.39722 -0.00628439C5.44499 -0.00649336 5.49276 -0.00670232 5.54198 -0.00691761C5.59414 -0.00690897 5.64629 -0.00690033 5.70003 -0.00689142C5.7557 -0.00706377 5.81136 -0.00723611 5.86871 -0.00741368C6.02307 -0.00784066 6.17742 -0.0080574 6.33177 -0.00818193C6.49832 -0.00836525 6.66487 -0.00881421 6.83142 -0.00922316C7.23358 -0.0101486 7.63574 -0.0106214 8.0379 -0.0110385C8.22746 -0.0112442 8.41701 -0.0114957 8.60657 -0.0117411C9.23701 -0.0125385 9.86744 -0.0132179 10.4979 -0.0135575C10.6614 -0.013647 10.8249 -0.013737 10.9885 -0.0138287C11.0291 -0.0138514 11.0697 -0.013874 11.1116 -0.0138974C11.7696 -0.0142862 12.4275 -0.0154735 13.0855 -0.0169965C13.7615 -0.0185486 14.4376 -0.0193912 15.1136 -0.0195408C15.493 -0.0196421 15.8723 -0.0200496 16.2517 -0.0212499C16.5749 -0.0222701 16.898 -0.0226435 17.2212 -0.022189C17.3859 -0.0219767 17.5506 -0.0220604 17.7153 -0.0229747C17.8943 -0.0238068 18.0734 -0.0234713 18.2525 -0.0228559C18.3038 -0.0233701 18.3551 -0.0238843 18.408 -0.0244141C19.0932 -0.0187603 19.7027 0.235084 20.204 0.700798C20.5232 1.0308 20.7484 1.45864 20.9854 1.84864C21.0519 1.95752 21.1185 2.06632 21.1852 2.17512C21.2016 2.20188 21.218 2.22865 21.2348 2.25623C21.3732 2.48208 21.5142 2.7062 21.6563 2.92969C21.9115 3.33126 22.1605 3.73647 22.4093 4.142C22.6004 4.45321 22.7935 4.76302 22.9893 5.0713C24.0227 6.70035 24.0227 6.70035 24.0204 7.70325C24.0206 7.76745 24.0209 7.83164 24.0211 7.89583C24.0216 8.0297 24.0214 8.16356 24.021 8.29743C24.0204 8.46742 24.0214 8.63737 24.0228 8.80735C24.0236 8.93975 24.0236 9.07214 24.0233 9.20454C24.0233 9.29717 24.0241 9.3898 24.0249 9.48243C24.0191 10.2405 23.7354 10.8041 23.2376 11.3617C23.1563 11.4375 23.1563 11.4375 23.0626 11.4375C23.083 11.4602 23.1034 11.4829 23.1245 11.5064C23.736 12.1947 24.0142 12.763 24.0158 13.6941C24.0161 13.7584 24.0164 13.8228 24.0168 13.8871C24.0173 14.0215 24.0175 14.1559 24.0174 14.2904C24.0174 14.4611 24.0187 14.6318 24.0203 14.8025C24.0214 14.9353 24.0216 15.0681 24.0215 15.2009C24.0217 15.2939 24.0227 15.387 24.0237 15.48C24.0213 15.9576 23.9388 16.378 23.6719 16.7813C23.4854 16.9068 23.2799 16.9145 23.0626 16.875C22.9219 16.7607 22.9219 16.7607 22.8282 16.6406C22.8127 16.6252 22.7973 16.6097 22.7813 16.5938C22.7718 16.5117 22.7718 16.5117 22.7696 16.4063C22.7684 16.3724 22.7672 16.3386 22.7659 16.3037C22.7802 16.1818 22.8071 16.1016 22.8512 15.9887C22.9427 15.7181 22.9439 15.4583 22.9439 15.1749C22.9443 15.1206 22.9446 15.0664 22.945 15.0105C22.9455 14.8962 22.9456 14.7819 22.9454 14.6676C22.9454 14.4942 22.9473 14.3208 22.9494 14.1474C22.9497 14.0358 22.9498 13.9242 22.9498 13.8126C22.9509 13.7359 22.9509 13.7359 22.9521 13.6576C22.9482 13.2144 22.8365 12.8026 22.5323 12.4688C22.0115 12.0085 21.3502 12.033 20.6913 12.035C20.6132 12.0349 20.535 12.0347 20.4568 12.0345C20.243 12.0341 20.0293 12.0343 19.8155 12.0346C19.5845 12.0348 19.3536 12.0345 19.1226 12.0343C18.6706 12.0338 18.2186 12.0339 17.7666 12.0342C17.3991 12.0344 17.0317 12.0344 16.6643 12.0343C16.6119 12.0343 16.5596 12.0343 16.5057 12.0343C16.3993 12.0343 16.293 12.0342 16.1867 12.0342C15.1901 12.0339 14.1935 12.0342 13.1969 12.0347C12.3423 12.0352 11.4876 12.0351 10.6329 12.0347C9.6398 12.0342 8.64674 12.034 7.65368 12.0342C7.54774 12.0343 7.4418 12.0343 7.33586 12.0343C7.25768 12.0344 7.25768 12.0344 7.17792 12.0344C6.81102 12.0345 6.44412 12.0343 6.07722 12.0341C5.62996 12.0338 5.1827 12.0339 4.73544 12.0344C4.50734 12.0347 4.27924 12.0348 4.05114 12.0344C3.84215 12.0342 3.63317 12.0343 3.42418 12.0348C3.34876 12.0349 3.27334 12.0349 3.19793 12.0346C2.28355 12.0304 2.28355 12.0304 1.50135 12.4572C1.12475 12.853 1.04946 13.2813 1.05329 13.812C1.05302 13.8952 1.05302 13.8952 1.05275 13.98C1.05262 14.0967 1.05296 14.2133 1.05375 14.3299C1.05475 14.5073 1.05376 14.6847 1.05256 14.8621C1.05268 14.976 1.05292 15.0898 1.05329 15.2036C1.05291 15.2561 1.05253 15.3086 1.05214 15.3627C1.05767 15.8313 1.17234 16.2113 1.49677 16.5582C1.806 16.8208 2.15293 16.9289 2.55099 16.9284C2.58671 16.9285 2.62242 16.9286 2.65922 16.9288C2.77927 16.9291 2.89931 16.9292 3.01935 16.9293C3.10528 16.9295 3.1912 16.9297 3.27713 16.93C3.46236 16.9305 3.64759 16.9309 3.83282 16.9312C4.12571 16.9317 4.41859 16.9327 4.71148 16.9337C5.5444 16.9366 6.37732 16.9391 7.21025 16.9407C7.67011 16.9416 8.12997 16.9429 8.58983 16.9448C8.83323 16.9458 9.07662 16.9465 9.32002 16.9466C9.54899 16.9467 9.77794 16.9475 10.0069 16.9487C10.0909 16.9491 10.1749 16.9492 10.2589 16.949C10.3737 16.9488 10.4884 16.9495 10.6032 16.9504C10.6364 16.9501 10.6696 16.9499 10.7037 16.9496C10.9193 16.9525 11.0673 16.9953 11.2501 17.1094C11.3876 17.3002 11.404 17.4453 11.3819 17.6706C11.3216 17.821 11.2337 17.8972 11.1094 18C10.9827 18.023 10.8854 18.0315 10.7591 18.0293C10.7242 18.0297 10.6893 18.03 10.6534 18.0303C10.5368 18.0311 10.4202 18.0303 10.3036 18.0294C10.2199 18.0297 10.1362 18.03 10.0524 18.0305C9.87222 18.0312 9.69201 18.0312 9.51179 18.0306C9.22651 18.0297 8.94124 18.0304 8.65596 18.0313C8.20436 18.0326 7.75277 18.0328 7.30117 18.0325C6.49348 18.032 5.68579 18.0331 4.8781 18.035C4.59486 18.0356 4.31162 18.0357 4.02838 18.0353C3.85161 18.0351 3.67484 18.0353 3.49808 18.0356C3.41651 18.0356 3.33494 18.0355 3.25337 18.0352C2.31107 18.0241 2.31107 18.0241 1.50135 18.4572C1.12475 18.853 1.04946 19.2813 1.05329 19.812C1.05302 19.8952 1.05302 19.8952 1.05275 19.98C1.05262 20.0967 1.05296 20.2133 1.05375 20.3299C1.05475 20.5073 1.05376 20.6847 1.05256 20.8621C1.05268 20.976 1.05292 21.0898 1.05329 21.2036C1.05291 21.2561 1.05253 21.3086 1.05214 21.3627C1.05767 21.8313 1.17234 22.2113 1.49677 22.5582C1.77954 22.7983 2.114 22.9275 2.48159 22.9284C2.53975 22.9286 2.59791 22.9289 2.65783 22.9291C2.7224 22.9292 2.78697 22.9292 2.85154 22.9293C2.91945 22.9295 2.98736 22.9297 3.05528 22.93C3.20161 22.9305 3.34793 22.9309 3.49426 22.9312C3.72572 22.9317 3.95716 22.9327 4.18862 22.9337C4.8468 22.9366 5.50499 22.9391 6.16318 22.9407C6.52664 22.9416 6.89009 22.9429 7.25354 22.9448C7.44584 22.9458 7.63815 22.9465 7.83046 22.9466C8.01141 22.9467 8.19235 22.9475 8.3733 22.9487C8.43962 22.9491 8.50594 22.9492 8.57227 22.949C8.663 22.9488 8.75372 22.9496 8.84445 22.9504C8.89516 22.9505 8.94588 22.9507 8.99814 22.9509C9.20049 22.9763 9.35606 23.0523 9.50984 23.1856C9.59297 23.3611 9.60016 23.5288 9.56257 23.7188C9.44831 23.8594 9.44831 23.8594 9.32819 23.9531C9.31273 23.9686 9.29726 23.9841 9.28132 24C9.18918 24.0051 9.09686 24.0068 9.00458 24.0072C8.9444 24.0076 8.88422 24.008 8.82221 24.0084C8.75487 24.0087 8.68753 24.0089 8.62019 24.009C8.54975 24.0094 8.4793 24.0098 8.40885 24.0102C8.1766 24.0114 7.94436 24.0122 7.71211 24.0128C7.63207 24.0131 7.55203 24.0133 7.47199 24.0136C7.13864 24.0146 6.80529 24.0155 6.47194 24.016C5.9951 24.0168 5.51827 24.0183 5.04143 24.021C4.70583 24.0228 4.37024 24.0237 4.03464 24.024C3.83447 24.0241 3.63433 24.0247 3.43417 24.0262C3.24525 24.0276 3.05636 24.0279 2.86744 24.0274C2.79865 24.0274 2.72985 24.0277 2.66106 24.0286C1.87788 24.0375 1.25374 23.8267 0.679757 23.2788C0.135678 22.7087 -0.0220166 22.0856 -0.0202549 21.314C-0.0204693 21.25 -0.0207182 21.1859 -0.0209994 21.1218C-0.0214157 20.9881 -0.0213073 20.8545 -0.0208385 20.7208C-0.0203012 20.5512 -0.0212466 20.3817 -0.0226159 20.2121C-0.0234847 20.0799 -0.0234612 19.9477 -0.0231953 19.8155C-0.0231848 19.7232 -0.0239696 19.6309 -0.0247803 19.5385C-0.0192409 18.8134 0.203378 18.2079 0.720773 17.6924C0.752073 17.6633 0.783373 17.6343 0.815622 17.6043C0.895406 17.5347 0.895406 17.5347 0.93757 17.4375C0.909835 17.4252 0.8821 17.4129 0.853524 17.4002C0.426667 17.1675 0.206667 16.6117 0.0435917 16.1793C-0.0327061 15.9029 -0.0151908 15.6122 -0.0156772 15.3278C-0.0159792 15.2635 -0.0162946 15.1992 -0.0166228 15.1349C-0.0171823 15.0004 -0.017358 14.8659 -0.0173023 14.7314C-0.0172928 14.5607 -0.0185691 14.3901 -0.0201873 14.2194C-0.0212405 14.0866 -0.0214192 13.9538 -0.0213699 13.821C-0.0215315 13.7281 -0.0225415 13.6351 -0.0235779 13.5421C-0.0199639 12.8152 0.202062 12.2092 0.720773 11.6924C0.752073 11.6633 0.783373 11.6343 0.815622 11.6043C0.895406 11.5347 0.895406 11.5347 0.93757 11.4375C0.909835 11.4252 0.8821 11.4129 0.853524 11.4002C0.426667 11.1675 0.206667 10.6117 0.0435917 10.1793C-0.0327061 9.9029 -0.0151908 9.61216 -0.0156772 9.32777C-0.0159792 9.26348 -0.0162946 9.1992 -0.0166228 9.13492C-0.0171823 9.00041 -0.017358 8.8659 -0.0173023 8.73139C-0.0172928 8.56072 -0.0185691 8.39009 -0.0201873 8.21942C-0.0212405 8.08662 -0.0214192 7.95383 -0.0213699 7.82102C-0.0215315 7.72806 -0.0225415 7.63509 -0.0235779 7.54213C-0.0205556 6.93419 0.143839 6.44526 0.46296 5.93262C0.489487 5.88888 0.516013 5.84514 0.543344 5.80007C0.786711 5.40102 1.03835 5.00707 1.29078 4.61372C1.448 4.36835 1.60198 4.12109 1.75495 3.87305C2.00075 3.47465 2.24791 3.07714 2.49653 2.68049C2.64976 2.43594 2.80224 2.19098 2.95338 1.94514C2.98426 1.89512 3.01515 1.84511 3.04697 1.79358C3.10543 1.69888 3.16366 1.60403 3.2216 1.50901C3.6561 0.806995 4.12207 0.313888 4.92194 0.0468822C5.08305 0.00926638 5.23194 -0.00594773 5.39722 -0.00628439ZM4.50007 1.50001C4.19476 1.89852 3.94727 2.33896 3.69135 2.77002C3.43379 3.20291 3.16167 3.62626 2.89012 4.05046C2.77166 4.23594 2.65416 4.422 2.53718 4.60841C2.51735 4.63981 2.49753 4.67122 2.4771 4.70357C2.38457 4.8274 2.38457 4.8274 2.34382 4.96876C8.71695 4.96876 15.0901 4.96876 21.6563 4.96876C21.3474 4.42646 21.3474 4.42646 21.0206 3.89649C20.9722 3.82058 20.9239 3.74465 20.8756 3.66871C20.8503 3.62904 20.825 3.58937 20.799 3.5485C20.6833 3.3658 20.569 3.1822 20.4547 2.9986C20.3651 2.85479 20.2751 2.71122 20.1851 2.5677C20.0793 2.39907 19.9747 2.22984 19.8712 2.05976C19.5542 1.54432 19.2671 1.18154 18.6563 1.03126C18.4717 1.01206 18.2886 1.01224 18.103 1.0134C18.0486 1.01318 17.9942 1.01296 17.9381 1.01274C17.7881 1.01227 17.6381 1.01244 17.4881 1.01287C17.3259 1.01319 17.1637 1.0127 17.0015 1.01231C16.6841 1.01169 16.3668 1.01182 16.0495 1.01223C15.7915 1.01255 15.5335 1.01259 15.2755 1.01244C15.2388 1.01242 15.202 1.0124 15.1641 1.01237C15.0894 1.01233 15.0147 1.01228 14.94 1.01224C14.2401 1.01184 13.5403 1.0123 12.8404 1.01305C12.2403 1.01368 11.6402 1.01357 11.0402 1.01292C10.3427 1.01217 9.6453 1.01188 8.94786 1.01231C8.87344 1.01235 8.79901 1.0124 8.72459 1.01244C8.68798 1.01246 8.65137 1.01248 8.61364 1.01251C8.35608 1.01263 8.09851 1.01242 7.84095 1.01209C7.52691 1.0117 7.21288 1.0118 6.89884 1.01255C6.73872 1.01292 6.57861 1.01307 6.41849 1.0126C6.24469 1.01222 6.07091 1.0127 5.89711 1.0134C5.84683 1.01309 5.79654 1.01277 5.74474 1.01245C5.24701 1.01634 4.85237 1.13756 4.50007 1.50001ZM1.34436 6.55272C1.05489 6.93372 0.996289 7.35652 1.00184 7.82117C1.00173 7.87649 1.00161 7.93181 1.0015 7.9888C1.00154 8.10485 1.00216 8.2209 1.00334 8.33694C1.00495 8.51356 1.0043 8.69008 1.0034 8.86671C1.00372 8.98011 1.00417 9.09351 1.00477 9.20692C1.00454 9.25913 1.0043 9.31133 1.00407 9.36513C1.01144 9.85934 1.14572 10.2336 1.48634 10.5947C1.78993 10.8569 2.12951 10.9745 2.52519 10.975C2.5583 10.9752 2.5914 10.9753 2.62551 10.9754C2.73727 10.9757 2.84904 10.9757 2.96081 10.9757C3.04141 10.9758 3.12202 10.976 3.20263 10.9762C3.42481 10.9766 3.64698 10.9768 3.86916 10.9769C4.10853 10.9771 4.3479 10.9776 4.58726 10.978C5.1657 10.9789 5.74414 10.9794 6.32258 10.9798C6.59488 10.98 6.86718 10.9803 7.13948 10.9805C8.04451 10.9813 8.94955 10.982 9.85458 10.9823C10.0895 10.9824 10.3245 10.9825 10.5594 10.9826C10.6178 10.9826 10.6762 10.9826 10.7364 10.9827C11.6824 10.9831 12.6284 10.9842 13.5744 10.9858C14.5453 10.9873 15.5163 10.9882 16.4872 10.9883C17.0325 10.9884 17.5777 10.9888 18.123 10.99C18.5874 10.991 19.0517 10.9914 19.5161 10.991C19.753 10.9907 19.99 10.9908 20.2269 10.9917C20.4439 10.9926 20.6609 10.9925 20.8779 10.9918C20.9563 10.9917 21.0347 10.9919 21.1131 10.9924C21.7007 10.9963 22.152 10.9314 22.5947 10.5137C22.8293 10.2421 22.9729 9.91147 22.9779 9.55318C22.9786 9.50339 22.9794 9.4536 22.9801 9.4023C22.9822 9.17343 22.9842 8.94456 22.9852 8.71568C22.986 8.59543 22.9873 8.47519 22.9891 8.35496C22.9917 8.18087 22.9927 8.00682 22.9934 7.83271C22.995 7.75314 22.995 7.75314 22.9966 7.67196C22.9954 7.20296 22.8785 6.79538 22.5557 6.44532C22.0243 5.96744 21.3713 5.98605 20.6913 5.9881C20.6132 5.98799 20.535 5.98785 20.4568 5.98766C20.243 5.98727 20.0293 5.98746 19.8155 5.98775C19.5845 5.98796 19.3536 5.98764 19.1226 5.98738C18.6706 5.98696 18.2186 5.98705 17.7666 5.98732C17.3991 5.98754 17.0317 5.98756 16.6643 5.98746C16.6119 5.98745 16.5596 5.98743 16.5057 5.98742C16.3993 5.98739 16.293 5.98736 16.1867 5.98733C15.1901 5.98706 14.1935 5.98737 13.1969 5.98787C12.3423 5.98829 11.4876 5.98822 10.6329 5.98779C9.6398 5.98728 8.64674 5.98709 7.65368 5.98737C7.54774 5.9874 7.4418 5.98743 7.33586 5.98746C7.25768 5.98748 7.25768 5.98748 7.17792 5.98751C6.81102 5.98759 6.44412 5.98745 6.07722 5.98723C5.62996 5.98697 5.1827 5.98704 4.73544 5.98754C4.50734 5.98778 4.27924 5.98788 4.05114 5.98757C3.84215 5.98729 3.63317 5.98745 3.42418 5.98794C3.34876 5.98805 3.27334 5.988 3.19793 5.98777C2.50353 5.98583 1.84217 6.00523 1.34436 6.55272Z" fill="#0C7AF7"/>
<path d="M19.4143 16.0253C19.6228 16.197 19.802 16.3811 19.9687 16.5939C20.0146 16.6467 20.0605 16.6994 20.1064 16.7521C20.2031 16.8752 20.2031 16.8752 20.2031 16.9689C20.2384 16.9673 20.2737 16.9657 20.3101 16.964C21.1892 16.9416 21.9934 17.1627 22.6875 17.7189C22.7259 17.7491 22.7644 17.7793 22.8039 17.8105C23.4448 18.3479 23.8732 19.092 24 19.922C24.0772 20.9673 23.9216 21.919 23.2331 22.7395C23.2078 22.7688 23.1824 22.7981 23.1562 22.8283C23.1278 22.8659 23.0993 22.9036 23.07 22.9424C22.5684 23.5383 21.8005 23.8765 21.0469 24.0002C20.7508 24.0251 20.453 24.0199 20.1561 24.0191C20.0678 24.0194 19.9795 24.0197 19.8912 24.0201C19.6531 24.0209 19.4149 24.0209 19.1768 24.0206C18.9774 24.0205 18.7779 24.0207 18.5785 24.021C18.1079 24.0217 17.6372 24.0216 17.1666 24.0211C16.6822 24.0205 16.1978 24.0212 15.7134 24.0225C15.2963 24.0235 14.8792 24.0238 14.462 24.0235C14.2135 24.0234 13.9649 24.0235 13.7163 24.0243C13.4825 24.025 13.2488 24.0248 13.0151 24.024C12.9297 24.0238 12.8443 24.0239 12.7589 24.0244C11.9706 24.0286 11.3157 23.8717 10.7148 23.3256C10.1944 22.7963 9.9662 22.1558 9.97027 21.4261C9.98973 20.6836 10.3009 20.1067 10.8281 19.5939C11.1587 19.2948 11.5571 19.0918 12 19.0314C12.004 18.9922 12.0081 18.953 12.0123 18.9126C12.1287 17.9477 12.5187 17.1243 13.1719 16.4064C13.2011 16.3734 13.2302 16.3404 13.2603 16.3064C14.8747 14.5804 17.63 14.6021 19.4143 16.0253ZM14.1562 16.922C14.1242 16.9503 14.0922 16.9786 14.0592 17.0077C13.4078 17.6171 13.0708 18.4825 13.0078 19.3595C12.9928 19.5599 12.9607 19.7063 12.8437 19.8752C12.6803 19.9811 12.5062 19.9991 12.3164 20.0304C12.0282 20.0837 11.8039 20.1534 11.5781 20.3439C11.5489 20.3681 11.5196 20.3923 11.4895 20.4172C11.1541 20.7216 11.0339 21.0692 11.0112 21.5165C11.0235 21.9077 11.1788 22.2554 11.4375 22.547C11.7813 22.84 12.0911 22.9835 12.5461 22.9815C12.5813 22.9817 12.6165 22.9819 12.6528 22.9821C12.7702 22.9827 12.8876 22.9826 13.0051 22.9825C13.0895 22.9828 13.1739 22.9831 13.2583 22.9835C13.4874 22.9843 13.7164 22.9845 13.9455 22.9846C14.0888 22.9847 14.2322 22.9849 14.3755 22.9851C14.8762 22.986 15.377 22.9864 15.8777 22.9863C16.3433 22.9862 16.8089 22.9872 17.2745 22.9887C17.675 22.9899 18.0755 22.9904 18.476 22.9904C18.7149 22.9904 18.9537 22.9906 19.1926 22.9916C19.4176 22.9925 19.6426 22.9925 19.8676 22.9918C19.9497 22.9917 20.0318 22.992 20.1139 22.9925C20.9557 22.998 21.6099 22.8282 22.2656 22.2658C22.8208 21.6432 23.013 20.979 22.9687 20.1564C22.8738 19.4847 22.5184 18.9262 21.9932 18.5041C21.4157 18.0949 20.8589 18.031 20.1722 18.0329C19.7696 18.0257 19.7696 18.0257 19.5895 17.8953C19.56 17.8525 19.5304 17.8098 19.5 17.7658C19.472 17.7282 19.444 17.6906 19.4152 17.6519C19.39 17.6141 19.3648 17.5763 19.3389 17.5373C18.7901 16.744 18.0264 16.2303 17.0668 16.0461C16.0229 15.8897 14.9395 16.2111 14.1562 16.922Z" fill="#0C7AF7"/>
<path d="M12.6546 12.9779C12.6886 12.9778 12.7226 12.9777 12.7576 12.9775C12.8721 12.9771 12.9865 12.977 13.101 12.977C13.1828 12.9768 13.2647 12.9765 13.3465 12.9763C13.5693 12.9757 13.792 12.9754 14.0148 12.9751C14.1539 12.975 14.293 12.9748 14.4321 12.9746C14.867 12.974 15.302 12.9735 15.737 12.9733C16.2395 12.9731 16.742 12.9723 17.2445 12.9709C17.6326 12.9699 18.0208 12.9695 18.4089 12.9694C18.6409 12.9693 18.8728 12.9691 19.1048 12.9682C19.323 12.9675 19.5411 12.9674 19.7593 12.9678C19.8394 12.9678 19.9195 12.9676 19.9996 12.9671C20.109 12.9665 20.2183 12.9668 20.3276 12.9673C20.3888 12.9672 20.45 12.9672 20.513 12.9671C20.6841 12.9859 20.7707 13.021 20.9063 13.1252C21.0383 13.3232 21.0375 13.5019 21 13.7345C20.8974 13.8669 20.8205 13.9415 20.6719 14.0158C20.5632 14.0205 20.4543 14.0221 20.3454 14.0224C20.3115 14.0225 20.2775 14.0226 20.2425 14.0228C20.128 14.0232 20.0135 14.0233 19.8991 14.0233C19.8172 14.0235 19.7354 14.0238 19.6535 14.024C19.4308 14.0247 19.208 14.025 18.9853 14.0252C18.8462 14.0253 18.7071 14.0255 18.568 14.0257C18.133 14.0263 17.6981 14.0268 17.2631 14.027C16.7606 14.0272 16.2581 14.028 15.7556 14.0294C15.3674 14.0304 14.9793 14.0309 14.5911 14.0309C14.3592 14.031 14.1272 14.0312 13.8953 14.0321C13.6771 14.0329 13.4589 14.033 13.2407 14.0325C13.1606 14.0325 13.0805 14.0327 13.0004 14.0332C12.8911 14.0338 12.7818 14.0335 12.6725 14.033C12.6113 14.0331 12.5501 14.0331 12.487 14.0332C12.3159 14.0144 12.2293 13.9793 12.0938 13.8752C11.9617 13.6771 11.9625 13.4985 12 13.2658C12.2027 13.0044 12.3354 12.9787 12.6546 12.9779Z" fill="#0C7AF7"/>
<path d="M12.6546 6.97795C12.6886 6.97781 12.7226 6.97767 12.7576 6.97752C12.8721 6.97712 12.9865 6.97705 13.101 6.97698C13.1828 6.97676 13.2647 6.97652 13.3465 6.97627C13.5693 6.97566 13.792 6.97535 14.0148 6.97515C14.1539 6.97501 14.293 6.97482 14.4321 6.97461C14.867 6.97397 15.302 6.97351 15.737 6.97333C16.2395 6.97312 16.742 6.9723 17.2445 6.97094C17.6326 6.96993 18.0208 6.96945 18.4089 6.96939C18.6409 6.96934 18.8728 6.96906 19.1048 6.96823C19.323 6.96746 19.5411 6.96735 19.7593 6.96777C19.8394 6.9678 19.9195 6.9676 19.9996 6.96714C20.109 6.96654 20.2183 6.96681 20.3276 6.9673C20.3888 6.96723 20.45 6.96717 20.513 6.9671C20.6841 6.98587 20.7707 7.02099 20.9063 7.12515C21.0383 7.32324 21.0375 7.50185 21 7.73453C20.8974 7.86692 20.8205 7.94149 20.6719 8.01578C20.5632 8.02052 20.4543 8.02211 20.3454 8.02236C20.3115 8.0225 20.2775 8.02264 20.2425 8.02278C20.128 8.02319 20.0135 8.02326 19.8991 8.02333C19.8172 8.02355 19.7354 8.02379 19.6535 8.02404C19.4308 8.02465 19.208 8.02496 18.9853 8.02516C18.8462 8.0253 18.7071 8.02549 18.568 8.0257C18.133 8.02634 17.6981 8.0268 17.2631 8.02698C16.7606 8.02719 16.2581 8.02801 15.7556 8.02937C15.3674 8.03038 14.9793 8.03085 14.5911 8.03092C14.3592 8.03097 14.1272 8.03124 13.8953 8.03208C13.6771 8.03285 13.4589 8.03295 13.2407 8.03254C13.1606 8.03251 13.0805 8.03271 13.0004 8.03317C12.8911 8.03377 12.7818 8.0335 12.6725 8.03301C12.6113 8.03307 12.5501 8.03314 12.487 8.03321C12.3159 8.01444 12.2293 7.97932 12.0938 7.87515C11.9617 7.67707 11.9625 7.49846 12 7.26578C12.2027 7.00438 12.3354 6.97867 12.6546 6.97795Z" fill="#0C7AF7"/>
<path d="M12.6113 8.99311C12.6628 8.99285 12.6628 8.99285 12.7154 8.99259C12.8312 8.99207 12.9469 8.99189 13.0627 8.99171C13.1455 8.99142 13.2282 8.99111 13.311 8.99078C13.5363 8.98996 13.7615 8.98947 13.9868 8.98908C14.1275 8.98884 14.2681 8.98855 14.4088 8.98826C14.8487 8.98737 15.2885 8.9867 15.7284 8.98631C16.2366 8.98585 16.7448 8.98462 17.253 8.98272C17.6455 8.98131 18.038 8.98061 18.4305 8.98046C18.6651 8.98035 18.8997 8.97993 19.1342 8.97875C19.3549 8.97766 19.5755 8.97746 19.7962 8.97794C19.8772 8.97797 19.9582 8.97767 20.0392 8.97703C20.1498 8.9762 20.2603 8.97653 20.3709 8.97714C20.4029 8.97663 20.435 8.97612 20.4681 8.97559C20.6881 8.97856 20.7983 9.03299 20.9531 9.18751C21.0349 9.35108 21.0269 9.52468 21 9.70313C20.9277 9.84305 20.8367 9.95777 20.6845 10.0148C20.538 10.0375 20.3958 10.0373 20.2475 10.0375C20.1975 10.0377 20.1975 10.0377 20.1466 10.0378C20.035 10.0381 19.9234 10.0381 19.8118 10.0381C19.7318 10.0382 19.6518 10.0384 19.5718 10.0385C19.3545 10.039 19.1372 10.0391 18.9198 10.0391C18.7385 10.0391 18.5571 10.0393 18.3757 10.0395C17.9478 10.0399 17.52 10.04 17.0921 10.0399C16.6506 10.0399 16.2091 10.0404 15.7675 10.0411C15.3886 10.0418 15.0096 10.042 14.6306 10.042C14.4042 10.042 14.1778 10.0421 13.9514 10.0426C13.7385 10.0431 13.5257 10.0431 13.3128 10.0427C13.2346 10.0427 13.1565 10.0428 13.0784 10.0431C12.9717 10.0434 12.8651 10.0432 12.7584 10.0428C12.6689 10.0429 12.6689 10.0429 12.5776 10.0429C12.3658 10.0271 12.2373 9.98196 12.0791 9.84083C11.9706 9.65203 11.9606 9.49434 12 9.28126C12.1735 9.00356 12.2962 8.99413 12.6113 8.99311Z" fill="#0C7AF7"/>
<path d="M4.17099 19.113C4.20223 19.1324 4.23347 19.1518 4.26566 19.1718C4.29835 19.1917 4.33104 19.2116 4.36472 19.2321C4.69904 19.4581 4.90874 19.7682 5.01566 20.1562C5.07325 20.657 4.98833 21.0864 4.69248 21.4987C4.59616 21.6066 4.50683 21.6805 4.38578 21.7587C4.33366 21.7931 4.33366 21.7931 4.28049 21.8281C3.90644 22.0432 3.47388 22.0805 3.0557 21.9814C2.67971 21.8606 2.37604 21.6081 2.15628 21.2812C1.96166 20.8828 1.94196 20.4971 2.01566 20.0624C2.11469 19.778 2.25353 19.5556 2.48441 19.3593C2.51825 19.3274 2.55208 19.2955 2.58695 19.2626C3.05196 18.9423 3.65651 18.8391 4.17099 19.113ZM3.14066 20.1562C3.0255 20.3289 3.01405 20.4712 3.04691 20.6718C3.13098 20.8035 3.18841 20.8832 3.32816 20.9531C3.60461 20.9826 3.60461 20.9826 3.84085 20.8535C3.94937 20.7022 3.98441 20.6232 3.98441 20.4374C3.92132 20.2482 3.8733 20.1746 3.70316 20.0683C3.46731 19.9799 3.35293 20.0342 3.14066 20.1562Z" fill="#0C7AF7"/>
<path d="M4.17099 13.113C4.20223 13.1324 4.23347 13.1518 4.26566 13.1718C4.29835 13.1917 4.33104 13.2116 4.36472 13.2321C4.69904 13.4581 4.90874 13.7682 5.01566 14.1562C5.07325 14.657 4.98833 15.0864 4.69248 15.4987C4.59616 15.6066 4.50683 15.6805 4.38578 15.7587C4.33366 15.7931 4.33366 15.7931 4.28049 15.8281C3.90644 16.0432 3.47388 16.0805 3.0557 15.9814C2.67971 15.8606 2.37604 15.6081 2.15628 15.2812C1.96166 14.8828 1.94196 14.4971 2.01566 14.0624C2.11469 13.778 2.25353 13.5556 2.48441 13.3593C2.51825 13.3274 2.55208 13.2955 2.58695 13.2626C3.05196 12.9423 3.65651 12.8391 4.17099 13.113ZM3.14066 14.1562C3.0255 14.3289 3.01405 14.4712 3.04691 14.6718C3.13098 14.8035 3.18841 14.8832 3.32816 14.9531C3.60461 14.9826 3.60461 14.9826 3.84085 14.8535C3.94937 14.7022 3.98441 14.6232 3.98441 14.4374C3.92132 14.2482 3.8733 14.1746 3.70316 14.0683C3.46731 13.9799 3.35293 14.0342 3.14066 14.1562Z" fill="#0C7AF7"/>
<path d="M4.21878 7.12495C4.58376 7.34979 4.81986 7.63375 4.98636 8.0273C5.06924 8.52459 5.02971 8.93039 4.78128 9.37495C4.66514 9.53708 4.55301 9.65063 4.38578 9.75874C4.33366 9.79309 4.33366 9.79309 4.28049 9.82814C3.90644 10.0432 3.47388 10.0805 3.0557 9.9814C2.67971 9.86062 2.37604 9.6081 2.15628 9.2812C1.96166 8.88282 1.94196 8.49709 2.01566 8.06245C2.11469 7.77803 2.25353 7.55558 2.48441 7.35933C2.51825 7.32742 2.55208 7.29552 2.58695 7.26265C3.06767 6.93148 3.68891 6.85075 4.21878 7.12495ZM3.14066 8.1562C3.0255 8.32894 3.01405 8.47119 3.04691 8.67183C3.13098 8.80355 3.18841 8.88321 3.32816 8.95308C3.60461 8.98264 3.60461 8.98264 3.84085 8.85347C3.94937 8.7022 3.98441 8.62319 3.98441 8.43745C3.92132 8.24819 3.8733 8.17465 3.70316 8.06831C3.46731 7.97987 3.35293 8.03426 3.14066 8.1562Z" fill="#0C7AF7"/>
</g>
<defs>
<clipPath id="clip0_668_36">
<rect width="24" height="24" fill="white"/>
</clipPath>
</defs>
</svg>
